<svg width="460" height="460" xmlns="http://www.w3.org/2000/svg">
 <title>Red Australia</title>
 <g>
  <title>Layer 1</title>
  <g id="svg_1">
   <path id="path479" fill="#9591b2" fill-rule="evenodd" stroke-miterlimit="10" stroke-width="0.2891" d="m375.57999,408.13901l0.27301,-0.52701l-1.17099,-0.151l-1.582,-3.30301l0.138,0.60001l-0.138,-0.224l-0.06702,0.224l0.06702,-0.67801l-0.20599,-0.151l-0.621,0.52701l-0.34402,-0.22501l0.13901,0.44901l-0.345,0.67801l-0.95999,0.44901l0.41101,0.67798l0.68799,-0.073l0.13901,1.12701l-0.55002,0.375l0.82202,0.37601l0,0.82401l0.13898,-0.302l0.27701,0.302l0.20502,1.42999l-0.138,0.448l0.48199,0.60001l0.62198,0l0.61603,-0.60001l0.68799,0.30301l0.54999,-0.23001l-0.134,-0.146l-0.27698,0.22501l0.13898,-0.37601l-0.34399,-0.45401l0.34399,0l0.272,0.60501l-0.20499,-1.73199l-0.13901,0.60599l-0.68799,0l0.827,-0.60599l0.07098,-1.048l0,0l0,0l0,0l0,0z"/>
   <path id="path487" fill="#9591b2" fill-rule="evenodd" stroke-miterlimit="10" stroke-width="0.2891" d="m346.948,416.77802l0.621,-0.30301l0.27301,0.90298l1.65399,0.60001l-0.06702,0.52701l0.82202,0.82401l1.30899,0.52698l1.78799,1.42902l0.759,0.15201l0,0.297l0.06702,-0.375l0.89398,0.224l0.07202,0.45398l0.06699,-0.30298l0.89301,0l0.75998,-0.52701l0.20602,1.05399l-0.20602,0.67801l0.27301,-0.45401l0.138,0.75201l0.07199,-0.673l-0.20999,-0.22998l0.27701,-0.522l-0.34399,0.073l0,-0.224l0.54898,-0.151l0.41602,-0.52701l0.27298,0.078l0.34402,-0.375l0.68799,0.521l0.138,0.60501l-0.48199,0.29797l0.48199,-0.15198l0.06699,0.67899l0.21103,0l-0.13901,-0.44901l0.20599,0.14603l0.20499,-0.29703l0.41602,0.375l-0.27701,0.60001l0.27701,-0.448l0.272,0l-0.616,-0.75198l-0.483,0l-0.27701,-1.12601l0.965,-0.37601l0.68802,0.146l0.689,-0.522l0.95999,0.298l0.34399,0.302l-0.20499,0.298l1.51498,-1.12701l0.138,0.229l0.41101,-0.151l0.41599,1.04901l0.41101,-0.073l0.827,-0.60001l0.89401,-1.35199l0.755,-0.302l0.27698,0.67801l0.483,-0.078l0.138,0.375l0.617,0.15198l0.483,-0.30298l-0.13901,0.30298l0.27701,0l-0.20499,-0.15198l0.95999,-1.27802l-0.20502,-0.448l0.68802,0.151l0.20499,0.44901l0.41602,0l0.34399,0.82901l0.41101,0.146l-0.20502,0.078l0.272,-0.224l0.34399,0.37598l0.62201,1.95102l0.34399,0.224l-0.68799,0.75098l0.06598,-0.375l-0.41098,0.302l0.345,0.15201l-0.75601,1.79901l0.27301,0.30298l-0.06702,0.60001l0.483,0.073l-0.34399,0.52701l-0.211,-0.297l-0.134,0.448l-0.55399,0.073l0.483,0.23001l0.68799,-0.67801l0.20499,0.073l-0.89297,1.12701l-0.27301,1.12598l-0.27701,-0.073l0.27701,0.15201l-0.07101,0.448l-0.13898,-0.224l0.41599,1.27802l-0.483,1.35098l0,1.05402l-0.54898,1.04898l0.41098,1.20502l-0.75598,1.57498l0.61697,0.97601l-0.54999,0.82901l0.483,0.22498l-0.13901,0.52701l-0.68799,0.75101l-0.272,-0.67801l0.478,-0.52701l-0.27301,-0.44897l0.483,-0.375l-0.483,-0.22501l-0.138,-0.67801l-0.62198,-0.151l0.966,-0.82498l-0.34402,-0.453l0.06702,-0.22501l-0.20599,0.30301l0.13898,0.448l-0.20599,0.22498l-0.27701,-0.37598l-0.27197,0.67798l0.06699,-0.224l0.138,0.224l-0.621,0.37601l1.17099,0.37601l-1.444,-0.073l-0.07098,0.82401l-0.755,0.90198l-0.27798,0.90302l-0.755,0.37601l0.27298,0.224l0.34402,-0.60001l0.27698,0.073l0,0.52701l-0.483,0.673l-0.06699,0.45398l0.20599,0.224l-0.13901,0.82401l-0.68799,0.45401l-0.20499,-0.60001l-0.06702,0.44901l-0.34399,0.151l0.54901,0.75101l-0.20502,0.29797l0.20502,0.375l-0.27701,-0.146l0.20599,0.44901l-0.20599,0.67801l-0.755,0.60001l-0.07199,0.90298l-0.134,-0.37601l-0.621,0.897l0.827,0.30301l0,-0.30301l-0.34399,-0.146l0.34399,-0.375l0.272,0l0.07199,0.448l0.34399,-0.073l0.06702,1.35199l-0.827,0.75101l0.34399,1.20001l-0.272,0.45398l0.483,0l-0.55499,0.673l0.34399,0.453l-0.95999,-0.52698l-0.13901,-1.20502l-0.20502,0.60599l0.20502,0l-0.06702,0.67203l-0.48199,-0.151l-0.27798,0.67798l-0.82602,-1.12598l-0.06699,-0.44901l0.621,-0.52701l-0.827,-0.151l-0.138,-1.12701l0.621,-0.224l0.134,-0.75198l0.41498,0.22501l-0.27698,0.75098l0.13898,0.302l0.138,-0.151l0,0.37601l0.75601,0.375l0.138,-0.375l0.06699,0.375l0.21002,-0.45398l0.478,-0.07303l-0.755,-0.224l0.20599,-0.30197l-0.34399,-0.298l0.34399,0l0.138,-0.302l-0.41101,-0.073l0,-0.60602l-0.34399,0.15201l-0.41599,-0.298l-0.41101,0.146l-0.27701,-0.146l0.34402,-0.375l-0.68802,0l0.07199,-1.20499l-0.41599,0.151l-0.06702,-0.37601l-0.07199,0.44901l-0.133,-0.297l-0.345,0.224l-0.27701,-0.67801l0.06702,0.302l-0.20502,0.073l0.34402,0.60501l0.34399,-0.151l0,0.224l0.827,0.30298l-0.41101,-0.151l-0.62198,0.297l-0.20502,0.67801l0.272,0.67902l-0.20499,0.073l0.138,0.224l0.13898,-0.297l0.06702,0.375l-0.34399,0.44897l-1.03302,0.22403l-0.06598,-0.97501l0.13797,-0.15201l0.06702,0.82999l0.41101,0.073l0.13898,-0.59998l-0.27298,-0.30301l0.27298,-0.52701l0.20502,0.07901l-0.06702,-0.22501l-0.41098,-0.078l-0.27701,0.37601l0.06699,-0.673l-0.478,-0.23001l0.134,-0.37598l-0.617,-0.672l0,-0.67902l-0.621,-0.448l-0.34399,0.297l0.41602,-0.146l0.34399,0.44901l0.20499,0.302l-0.20499,0.37601l0.478,0.224l0.20999,1.42398l-0.41599,0.67902l-0.06702,1.05298l-0.27698,0l-0.138,-0.75098l-0.20602,0.224l-0.13898,0.59998l0.345,0.22501l-0.478,0.45401l-0.13901,1.50198l-0.54901,0.673l-1.10498,-0.75098l0.34497,-0.44901l-0.13898,-0.52701l-0.34399,0.75201l-0.68802,-0.52701l0.20999,-0.97601l-0.34399,0.44901l0,0.67801l0.755,0.67798l0.20502,0.673l-0.34402,0.45401l-0.20499,-0.30301l-0.621,0.15201l0.68799,0.375l-0.41098,0.673l0,0.52701l-0.755,0l-0.13901,-0.448l-0.13901,0.448l0.55002,0.151l0.13898,0.37598l-0.54999,-0.073l0,0.44901l0.34399,-0.30301l-0.27698,0.60501l-0.41101,0.146l-0.07199,-0.448l-0.20502,0.52701l0,0.375l0.27701,-0.151l0,0.37601l-1.03201,0.52698l0.138,-0.30298l-0.27698,-0.297l-0.96503,0.375l-0.06699,-0.52701l-0.27701,0.073l0,-0.297l-0.478,-0.37601l-0.13901,-1.27798l-0.20499,0.52698l0.272,0.44901l-0.617,-0.37601l-0.27701,0.224l-0.68799,-0.073l-0.55002,-0.375l-0.48199,0.297l-0.13898,-0.59998l-0.34402,-0.151l-0.34399,0.60498l-0.41098,-0.60498l-0.41602,0.67798l-0.272,-0.224l-0.483,0.448l0.13901,-1.50198l-0.41602,-1.12701l-0.41098,-0.073l0.54898,-0.30298l0.07202,0.52698l0,-0.90198l0.82199,0.67798l-0.134,-0.37598l0.617,0.15198l0.07199,0.673l0,-0.298l0.133,0.22501l0.211,-0.45401l0.34402,0.151l0,0.30301l0.20499,-0.82999l-0.48199,0l0,-0.448l-0.62201,0.67798l-0.272,-0.22998l-0.07199,-0.522l-0.134,0.44901l-0.48199,0l-0.345,-0.67801l0.13901,-0.75101l-0.41602,-0.37601l0.20599,-0.297l-0.20599,0.073l0.07202,0.75101l-0.621,0.30301l0.138,0.224l0.41098,-0.30301l0,0.52701l-0.54898,0.22501l-0.27701,-0.147l0.138,-0.302l-0.272,-0.224l-0.07199,-0.97601l-0.34402,-0.151l-0.13898,-1.20499l-0.272,0.078l-0.27701,-0.37601l0.20502,-0.52701l-0.34402,-0.224l-0.34399,-0.97598l-0.89398,0.146l0.07199,-0.599l-0.27701,-0.60001l-0.483,-1.879l0.20599,-0.67801l-0.20599,-0.897l-0.272,-0.078l-0.211,-0.60001l-0.41098,-0.073l0.483,-0.52698l-0.41602,-0.75101l0.211,-1.20599l-0.27798,-1.42401l0.20599,-0.67801l-0.34399,-1.12698l0.48199,0.22501l0.20599,1.05298l0.621,0l-0.07101,0.52701l1.03201,0.97601l0.07199,1.95099l0.138,-1.12701l-0.20999,-0.073l0.41599,-0.224l0.272,0.448l-0.134,-0.297l0.55002,-0.90298l-0.41602,0.15201l0.13901,-0.15201l-0.27301,-0.526l-0.138,0.526l-0.13898,-0.599l-0.755,-1.05402l-0.20999,-1.42999l-0.20602,-0.073l0.07202,0.37601l-0.483,0.302l0.13898,0.37601l-0.55499,-0.151l0.55499,-1.58102l-0.211,-1.35098l-1.99197,-4.05402l-0.41602,-0.151l0,-0.45398l0.483,-0.44901l-0.483,0.073l-0.34399,-1.72601l-0.82199,-1.57599l0.41098,-0.60001l-0.68799,-1.87799l0.138,-2.70801l-0.34399,0l-0.20502,-0.599l0.34399,-0.52701l-0.211,-0.44897l0.483,-0.45401l0.27701,0.151l0.34399,-0.75101l0.13901,-1.20001l-0.27701,-0.67798l0.138,-0.60001l0.41101,-0.375l0.27798,1.35098l0.20502,-0.37598l0.483,0.224l0.06699,0.52698l0.07101,-0.297l0.689,0.44901l0.54901,-0.22501l0.27197,0.673l0.27802,-0.073l0.34399,0.60001l0.138,-0.151l0.06702,0.37601l0.483,-0.22501l-0.34402,-0.448l0.68802,0.297l0.621,-0.224l-0.41501,0.302l0.41501,0l0.134,-1.27802l0.41599,0.75101l-0.483,0.44901l0.06702,0.45401l0.07199,-0.60001l0.13901,0.82401l1.30399,0.52701l0,0l0,0l0,0l0,0z"/>
   <path id="path495" fill="#9591b2" fill-rule="evenodd" stroke-miterlimit="10" stroke-width="0.2891" d="m333.39001,403.32901l-0.34402,-1.12701l0.41501,-1.04898l-0.07098,-1.73203l0.82599,-0.59998l0.07199,-0.97501l0.34399,-0.15201l1.37701,1.35199l-0.27701,2.02902l0.27701,0.224l-0.34399,0.75198l0.272,0.60495l-0.06702,0.60007l-0.34399,0.90198l-1.65399,0.82501l-0.272,0.599l-0.41602,-0.599l-0.138,-0.75201l0.34402,-0.073l0,-0.82898l0,0z"/>
   <path id="path569" fill="#9591b2" fill-rule="evenodd" stroke-miterlimit="10" stroke-width="0.2891" d="m273.24399,345.71301l-0.89398,-1.05402l-1.51501,-0.37601l-0.89398,0.75201l-1.37601,-0.2251l-0.89401,0.298l-0.75998,-0.37601l-1.37601,0.60501l-0.272,-1.12701l-0.89899,-0.45398l-0.47803,-0.90201l0.34402,-0.522l0.06699,-1.12701l2.203,-0.82898l2.95901,-0.29791l0.75497,-0.60501l1.72,-0.60007l1.448,0.30307l0.41101,-0.22406l0.27802,0.22406l1.099,-0.45401l0,0.45401l-0.34402,0.073l-0.27298,0.45401l0.755,0.297l-0.68802,0.97601l0.966,0.22888l1.099,-0.15094l0.20502,0.44904l-0.54901,0.60001l0.06699,0.52701l0.55402,-0.22501l-0.55402,-0.224l0.21002,-0.30301l0.82199,0.07901l0.55399,-0.98099l0.27301,0l1.104,0.375l0.34399,0.75189l0.478,0.078l0.07101,0.60004l-1.03201,0.82407l-1.30899,-0.673l-1.64902,-0.151l-1.37698,0.75101l-0.138,1.35098l-1.51501,0.83002l0,0z"/>
   <path id="path719" fill="#9591b2" fill-rule="evenodd" stroke-miterlimit="10" stroke-width="0.2891" d="m144.00101,49.7242l-0.27701,-0.3757l-0.134,0.3757l0.067,-0.4487l-0.278,0.3756l-0.205,-0.1513l0,0.3757l-0.272,-0.1513l0.205,-0.4487l0.205,0.073l-0.067,-0.4486l-0.554,0.0731l-0.13399,-0.2244l0.20599,-0.4539l-0.34399,0l0.48299,-0.2243l-0.07199,-0.6l-0.55,0.6l0.27701,-0.673l-0.483,0.073l0.89499,-0.6782l-0.278,-0.2973l-0.75499,0.2243l1.03299,-0.4486l-0.483,-0.2296l-0.894,0.9025l0.54901,-0.7512l-0.41,-0.1513l0.48199,-0.5999l-0.965,0.3756l0.27699,-0.3756l-0.27699,0l0.067,-0.3757l-0.34401,0.6782l-0.34499,-0.3025l-0.343,0.1513l0.965,0.7512l0.27699,-0.1513l-0.27699,0.5999l0.205,0.3757l-0.34401,-0.0731l-0.06699,-0.6781l-0.34401,-0.0731l-0.205,0.2243l0.41101,0.3757l-0.278,0.1513l-0.06601,-0.3027l-0.20599,0.7513l0,-0.5999l-0.34401,-0.4487l-0.13899,0.1513l0.483,1.1268l0.20599,0.1461l0.89301,-0.2974l0.827,0.9026l-0.27699,0.146l0.20999,0.3027l-0.34399,0.7512l-0.89801,0.3756l0.41501,1.278l-0.965,0.6728l-0.272,0l0.134,0.303l0.343,-0.0734l0.416,1.5758l-0.54901,-0.0728l0,0.6729l-0.483,-0.6729l-0.549,0.2971l-0.13899,0.5266l0.411,0.903l-0.13901,0.2243l-0.133,-0.2243l0.067,0.4486l-0.278,-0.2243l-0.067,0.2243l0.278,-0.2977l-0.13899,-0.3024l-0.89401,-0.6l0.205,-0.3024l-0.276,-0.2242l0.276,-0.1515l-0.41499,-0.4486l0.55499,-0.3023l-0.14,-0.2977l-0.549,0.3758l0.134,-0.3758l-0.20601,-0.1515l-0.27199,0.5273l-0.416,0.0728l0.13899,-0.4486l-0.20599,-0.3024l0.20599,-0.1514l-0.34399,-0.0728l-0.067,0.6728l-0.89799,2.7806l0.55299,-2.1753l-0.41499,-0.7515l0.07199,-0.3757l-0.20999,0.2242l0.20999,-0.3751l-0.20999,-0.303l0.34299,-0.3757l-0.133,-0.2971l0.755,0.0728l-0.067,-0.3024l-0.27701,0.0781l0.34401,-0.6l-0.34401,0.2977l-0.68799,-0.8244l-0.06801,0.3758l-0.138,-0.5271l-0.416,0.073l0.13901,0.3754l-0.20601,-0.2241l-0.205,0.2241l0.272,0.1515l-0.20599,0.6l0.278,0.3758l-0.13901,0.3751l0.41101,0.2296l-0.34401,1.6486l0.27701,0.1515l-0.483,0.4538l0.345,0.1462l-0.82701,0.0781l0.34401,-0.6781l-0.82201,0l0.067,0.6l-0.345,-0.2976l0.14,0.4491l-0.345,0.2243l0.13901,0.3751l-0.34401,-0.1455l0.134,0.7509l-0.20599,-0.6781l-0.20601,0.3757l0.13901,-0.5272l-0.20599,-0.6l-0.759,1.0539l0.27699,-0.6782l-0.07199,-0.8243l-0.272,0.2243l0.067,0.6l-0.20601,-0.0728l-0.067,0.2971l-0.27699,-0.2971l0,0.2243l-0.549,0.3757l0.138,0.5267l0.27199,-0.1509l0.483,0.3752l-0.75499,0.0733l0,0.4539l-0.34401,-0.3758l-0.27699,0.0728l0,0.7515l-0.13901,-0.3023l-0.27199,0.1509l0.133,0.5272l-0.343,-0.2243l-0.20599,0.2243l0.34399,0.6l0.416,0l-0.211,0.6781l0.345,0.2971l0.416,-0.4486l-0.07201,0.4486l0.554,-0.2243l0.20599,0.303l0.067,-0.2249l0.071,0.2977l0.20601,0l-0.416,0.3023l0.07199,0.4486l-0.48299,-0.4486l-0.067,0.2977l-0.138,-0.1462l-0.688,0.7515l0.272,-0.1515l0.20999,0.2243l0.41101,-0.3757l0,0.5272l0.62099,-0.3758l-0.34399,0.2971l0.134,0.303l0.554,-0.2243l0.20599,0.2971l0.13901,-0.2243l0.40999,0.4538l0.067,-0.9024l0.211,0.751l0.688,-0.3024l-1.243,0.7515l-0.06599,0.3024l0.34299,-0.0781l0.13901,0.2296l-0.621,0.3751l1.31,0.2243l0.616,0.4491l-0.20599,-0.2243l-1.032,0.2243l-0.411,-0.2976l-0.55,0.1461l0.134,0.3758l-0.272,-0.3758l0.067,0.3024l-0.55,-0.3024l0,-0.6l-0.13901,0.2243l-0.48199,-0.1462l-0.82199,0.8243l-0.483,-0.8243l0.067,-0.6781l-0.272,-0.1509l-0.07201,0.4539l-0.34399,0.0727l0.13899,-0.3757l-0.345,-0.0728l0.41101,-0.6781l-0.688,0.1509l-0.205,-0.1509l0,0.7509l0.41499,0.5272l-0.20999,0.5267l-0.205,-0.3024l-0.411,0.6l-0.827,-0.2976l-0.966,0.8243l0.072,0.3029l0.756,-0.2296l-0.412,0.3752l0.206,0.1515l-0.139,0.5272l0.277,-0.2249l-0.138,0.4492l0.755,-0.7515l-0.06699,-0.2971l0.411,0.2243l-0.067,-0.2243l0.27701,-0.3757l0.067,0.4485l0.20599,-0.6781l0.205,0.2296l0.20999,-0.2296l0.20601,0.3024l-0.689,0.9024l-0.41501,-0.3752l-0.55,0.3752l-0.067,0.15141l0.344,0l-0.344,0.14619l0.206,0.3758l-0.277,-0.2243l-0.411,0.5266l0.277,0l-0.071,0.3758l0.276,-0.1515l-0.205,0.2243l0.549,0.1514l1.03299,-1.0485l0.138,0.297l0.55,0.1515l-0.07199,-0.6781l0.211,0.2296l0.06599,-0.2296l-0.138,0.9805l0.76001,-0.2296l-0.76001,0.3758l-0.205,1.2781l2.269,1.7267l-1.99199,-1.4237l-0.483,0.1509l0.067,0.5219l-0.13901,-0.14619l-0.067,0.37579l-0.27699,0l0.07199,-0.7515l-0.27699,0.3757l0,-0.22961l-0.483,0l0.55501,-0.44849l-0.345,-0.52721l-0.21001,0.3029l-0.067,-0.5272l-0.34399,0.0734l0.06699,-0.2977l-0.689,-0.30241l-0.066,0.30241l-0.483,-0.0781l0.139,-0.8243l-0.278,0.3758l-0.477,-0.3758l-0.345,0.8243l-0.277,-0.0728l0.483,-0.6l-0.277,-0.303l-0.206,0.2243l0.139,-0.2243l-0.344,0.0787l0,-0.3757l-0.20599,0.3757l-0.277,-0.3757l-0.139,0.67281l0.34499,-0.0728l0.138,0.2971l-0.55,0.0787l0.067,0.4485l0.55,-0.2243l0,0.2243l0.483,0l-0.894,0.6l0,0.7509l0.277,0.1515l-0.138,0.3024l-0.345,-0.1515l-0.138,-0.6781l-0.139,1.3568l-0.138,-0.3029l-0.411,0.3029l0,-0.3029l-0.34399,0.0734l-0.483,-0.4492l-0.827,0.5272l0.555,-0.22421l0.205,0.4485l-0.416,-0.2243l-0.134,0.4486l-0.554,0.2243l0.21001,0.3757l-0.277,0.6781l0.20499,-0.4485l0.07201,0.2243l0.27299,-0.1515l-0.205,0.3757l0.276,0.3758l-0.34399,0.3024l-0.21001,-0.5267l-0.06699,0.6728l-0.344,-0.37569l-0.139,0.303l0.278,0l0.138,0.67809l0.27299,-0.07809l-0.48299,0l0.48299,2.1805l0.139,-0.3757l0.205,0.22421l0.138,-0.9024l0.067,0.6782l0.345,0.3757l-0.067,0.8243l0.138,-0.2976l0.272,0.0733l-0.133,0.9752l1.166,-2.6291l0.965,-0.9023l-0.34399,0.5266l0.48299,-0.1515l0.066,-0.4485l-0.066,0.4485l0.755,0.2296l-0.616,0.1462l-0.34499,0.6053l0.134,0.2971l-0.411,-0.3752l-0.549,0.6l0.205,0.37521l-0.205,0.6781l0.41,0.1515l-0.549,-0.0781l-0.139,0.3757l0.278,0.3752l-0.278,-0.0728l0.206,1.2001l0.277,-0.0734l0,-0.4486l0.138,0.2977l0.27299,0l-0.616,0.4538l-0.416,-0.07861l-0.411,0.7515l0.277,0.3757l0.411,-0.0734l-0.688,0.2977l0.20499,-0.2977l-0.272,-0.2242l-0.072,0.2242l0,-0.4538l-0.616,-0.67281l0.205,-0.37579l-0.483,-0.1509l0,1.5752l0.139,0l-0.622,-0.0728l-0.20499,0.60001l0.411,0.2243l-0.272,0.6048l0.272,0.2976l-0.134,0.60001l0.478,0.2296l1.998,-0.7515l-0.139,0.2243l1.31,0l1.443,0.9024l1.104,-0.0781l0.54901,-0.9752l0.34499,0.3751l-0.27699,-0.0727l-0.55,0.6728l-1.032,0.4538l0.138,-0.2296l-1.103,-0.4485l-3.508,0.6l-0.828,-0.8243l-0.549,1.0486l0.621,-0.14619l0.411,0.9758l0.755,0.0728l-0.205,0.0787l0.277,0.3751l-0.482,-0.4538l-0.278,0.0787l0,0.5213l0.278,0.0781l-0.278,-0.0781l0.072,0.303l-0.139,-0.2249l-0.205,0.3758l0.138,-0.82961l-0.34399,-0.8243l-0.76,0.37569l-0.96,-0.0728l0.755,0l0.277,-0.37569l-0.072,-0.30241l-1.237,0.1509l-0.411,-0.829l-0.21,0.1509l0.21,-0.2971l-0.21,-0.4538l-0.689,-0.2977l-0.961,0l-0.20499,-0.2296l-0.277,0.1515l-1.09901,-0.6728l0.067,0.297l0.549,0.2243l-0.139,0.1515l0.828,0.3757l-0.20599,0.2243l-0.277,-0.3757l-0.55,0.3023l0.688,0.9758l0.416,0.1515l-0.688,-0.1515l0.272,0.5267l-0.205,-0.1509l-0.411,-0.4486l0.344,0l-0.966,-0.8296l0.411,0.6781l-0.411,-0.0733l0.278,0.1461l-0.278,-0.0728l0.206,0.9758l-0.411,-0.1515l0.138,0.5267l-0.482,-1.1995l0.549,0.1509l-0.20499,-0.60471l-0.344,-0.14619l-0.206,0.2971l-1.17,-0.9752l0.482,0l-0.07201,-0.2249l0.416,0.2977l-0.554,-0.9758l0.416,0.4539l0,-0.2296l0.344,0.0787l-0.344,-0.2243l0.205,-0.2296l-1.309,-0.6734l0.344,0.3758l-0.206,0l0.139,0.1515l-0.206,-0.2296l0,0.5266l-0.205,-0.5266l-0.483,0.3757l-0.34399,-0.1461l0.206,0.3757l-0.278,-0.3029l-0.344,0.0733l0.555,0.829l-0.688,-0.7509l-0.211,0.1515l0.072,0.4486l0.482,0l-0.415,0.0727l0.344,0.1515l-0.139,0.1515l0.555,0.2243l-0.621,-0.1515l0.205,0.1515l-0.272,0.3024l-0.211,-0.2243l-0.067,0.2243l0.688,0.5266l0.345,-0.0781l-0.206,-0.4485l0.827,0.60001l0.205,-0.1515l0.139,0.6781l0.206,0l-0.688,0l0,0.1515l-0.073,-0.30241l-0.343,0.0728l0.621,0.6781l0.483,0l-1.104,0.1515l-0.06699,0.2243l-0.278,-0.4486l-0.82201,0l0.617,0.3758l-1.03201,-0.1515l1.925,0.6728l0.073,0.303l-0.895,0.1509l0.895,0.2242l-0.76099,0.0734l-1.51,-0.60001l-0.138,0.0781l0.411,0.5219l-0.827,-0.0734l0.554,0.1515l0.55,1.0486l0.067,-0.44859l0.344,0.0728l-0.206,-0.37511l0.755,-0.14619l0.55499,0.3752l-0.55499,0l0.278,0.4491l-0.139,-0.30299l-0.411,0.1515l-0.138,0.3024l0.276,0.2976l-0.826,0.2296l0,0.2971l1.443,0l0.76,0.903l0.344,-0.303l0.014,0.303l0.347,0.4781l-0.089,0.3462l0.416,0.37511l0.067,-0.37511l0,0.37511l0.206,0.1515l-0.344,-0.1515l0,0.4539l0.549,0.4491l0.966,-0.7515l0.688,-0.1515l-0.278,-0.8243l0.345,0.3758l0.138,-0.4485l-0.138,0.297l0.277,0.1515l-0.277,0.1515l0,0.4485l-1.444,1.4296l0.62199,0.0728l-0.278,0.2243l0.345,0.5272l0.205,0l-0.272,0.1509l-0.55499,-0.4485l-0.411,0.1461l0.344,0.8297l0.34399,0l-0.34399,0.0728l0.206,0.82961l0.688,0.82439l0.416,-0.0728l0.205,0.8969l-0.277,-0.7514l-0.482,0.15141l-0.689,-0.4485l-1.37601,-1.7267l-0.272,0.5213l-0.139,-0.4485l-0.206,0.07339l-0.138,-0.67339l0.277,0.07339l-0.416,-0.2243l-0.344,0.3024l0.278,0.2242l-0.278,0l-0.067,-0.6l-0.41599,0.8977l0.278,0.829l1.309,1.5024l-0.621,-0.3751l0.205,0.5266l-0.41,-0.4538l-0.14,1.9562l-0.34299,0.4486l-0.067,0.6l0.41,0.2243l-0.41,-0.0728l0,0.3024l0.477,0.89761l-0.067,1.12669l-0.276,0.1515l0.071,0.3024l0,-1.4297l-0.41599,0.0787l0.34499,-0.2296l-0.34499,-0.2976l-0.47701,0.1515l0.205,-0.7515l-1.033,-1.2048l-0.205,-0.2976l-0.621,0.0733l0.205,-0.1515l-0.138,-0.9757l-0.617,-1.1995l-0.549,-0.5272l-0.139,0.1515l-0.139,-1.2054l-0.549,-0.8243l-0.894,-0.4538l-0.277,0.0781l0.482,-0.9752l-0.343,-0.7515l-0.416,-0.1509l0.138,0.297l-0.272,-0.2242l-0.139,-0.6001l0.34399,-0.22421l0.067,-0.67809l-0.344,0.37569l-0.34399,-0.1515l0,-0.4485l-0.067,0.4485l-0.277,-0.0728l-0.205,-0.903l-0.206,-0.22421l-0.344,0.52721l0,-0.4538l-0.48299,-0.2977l0.62199,-0.9024l-0.48299,0l0.272,-0.4485l-0.134,-0.303l0.34499,-0.2243l0.344,0.2977l0.411,-0.6l-0.277,0.1514l-0.478,-0.4491l0.205,-0.15089l-0.205,-0.3029l0.205,-0.2971l-0.827,0.67281l-0.549,-0.0728l-0.277,0.7509l0.071,0.67339l-0.554,0.37521l0.344,0.2296l-0.27299,-0.1506l-0.759,0.82401l0.21,-0.44901l-0.554,0.8241l-0.206,1.2055l0.277,0.3757l0.206,-0.2296l-0.067,0.5267l0.688,0.52731l-0.554,-0.3758l0.071,0.3026l-0.138,-0.2298l-0.277,0.2298l0.071,-0.3026l-0.277,0.44839l-1.238,0.454l-0.277,-0.454l-0.411,0l-0.277,0.6782l0.277,0.2243l-0.277,-0.0728l-0.13371,0.4486l0.8937,1.5024l-1.10429,-0.15089l-0.41071,-0.6734l0,1.12749l-0.4112,0.1506l0.2728,-0.6781l-0.4829,0.3758l-0.68819,0.6002l0.41599,0.22421l-0.3444,-0.0734l-1.2373,1.4297l0.1337,0.4486l0.41541,-0.3752l-0.1384,0.22421l0.3443,0l-0.4112,0.15089l0.4112,0.15141l-0.4828,-0.0781l-0.34441,0.2297l-0.4107,1.1266l-0.416,0.3757l-0.2053,1.27299l0.0716,2.85851l0.7551,1.5023l0.0668,1.049l0.4829,0l-0.4829,0.224l0.2776,2.254l-0.4113,0.527l0.4781,0.454l0.41541,-1.054l0.06689,0.30199l1.17101,0.07401l0.27699,0.224l0.0668,1.502l-0.6207,1.054l-1.16631,0.527l-0.2101,0.824l-0.0668,-0.376l-0.6882,1.128l-0.7557,0.302l-0.4822,0.976l-0.7598,0.673l-0.961,0.605l-0.3438,-0.376l-0.2775,0.146l-0.2722,0.527l0.13371,0.303l0.2101,-0.22401l-0.2101,0.521l-0.13371,-0.376l-0.48289,0.981l0.2728,0l-0.4781,0.073l0.755,0.449l0.1385,0.605l-0.4828,0.298l-0.1385,0.454l-0.4823,0l-0.20589,0.297l-0.54971,-0.151l-0.06689,0.229l-0.1385,-0.229l0.0669,0.526l0.416,0.303l0,0.903l-0.0716,-0.23l-0.4829,0.83l-0.2053,1.048l0.2769,-0.146l-0.5497,0.146l0.1337,0.375l-0.4775,0.98199l-0.07159,0.82401l-1.9261,3.683l-1.2379,1.726l-2.9581,2.703l-8.5358,4.883l-2.7527,0.60001l-1.6539,0.75099l-0.7551,-0.151l0.0669,0.302l-0.13371,-0.151l-0.277,0.22501l0.20541,0.078l-0.20541,0.67799l-0.41119,0.146l0.2053,-0.67299l-0.41541,0.22499l0.21011,0l-0.2769,0.526l-1.238,0.825l0.1385,-0.22499l-1.2426,-0.82401l-0.2054,0.224l-0.4828,-0.224l-0.5498,0.37l0.0722,-0.37l-2.2705,-0.23l-0.1384,0.83l0.6166,0.224l-0.6166,-0.151l-0.277,-0.44901l-0.5497,-0.224l-0.2775,0.82401l-0.9604,0.44899l-0.1385,1.205l-1.0325,1.50301l0.2775,0.448l-0.3444,-0.302l-0.3438,0.526l0.4775,0.15201l-1.0988,0.073l-0.2776,0.22899l0.2776,0.22501l-0.2059,0.073l-0.0717,-0.37599l-0.2721,0.52699l-0.1385,0.073l0.1385,-0.297l-0.5498,0.52701l-0.3443,0l0.2059,-0.15201l-0.2059,0.07401l0.1343,-0.15201l-0.206,-0.224l-0.755,0.224l0.4829,0.078l-0.3438,0.22501l0.4106,-0.073l-0.4106,0.146l0.4106,0.078l-0.2769,0.224l-0.2059,-0.302l0.0722,0.37599l-0.4829,-0.674l-0.2059,0.44901l0.0675,-0.44901l-0.3444,0.298l0.0668,0.302l-0.2722,-0.302l-0.0716,0.45399l-0.6166,-0.15199l-0.2059,0.37599l-0.4822,-0.151l-0.0716,0.375l-0.206,-0.151l0,-0.44899l-0.6881,0.37599l0.2775,0.073l-0.6213,0.07901l0,0.297l-0.4829,-0.073l-0.2055,0.37599l-0.2724,-0.752l-1.8591,2.10201l-0.7599,0.37599l0,0.60001l0.3441,0.151l0.0717,-0.224l0.0669,0.224l-0.6166,0.07899l-0.0716,0.52101l-0.411,-0.29701l-0.0717,0.224l0.2103,0.07301l-1.2426,1.35599l0.2772,0.22501l-0.3442,-0.151l-0.8267,0.526l-0.1386,-0.375l-0.0669,0.44901l-0.1386,-0.298l-0.2055,0.522l-0.067,-0.448l-0.2772,0.14999l0.2056,-0.375l-0.6165,0.297l0.1337,0.37601l-0.4109,0.078l0,0.29799l-0.0669,-0.29799l-1.1709,0.44899l-0.1386,0.52701l-0.0669,-0.37601l-0.4158,0.073l-0.0669,0.679l-0.2055,-0.59999l-0.2103,0.59999l-0.2724,-0.15199l0.2724,-0.073l0,-0.30301l-1.6488,-0.151l-0.2772,-0.375l-0.0669,0.302l0.1386,-0.448l-0.2772,-0.078l0.2055,-0.37599l-0.2724,-0.52701l-0.5544,0.903l-0.411,-0.37599l-0.5496,0.75099l-0.0717,-0.297l-0.5496,0.224l-0.6166,1.048l-1.1039,0l-0.6165,-0.521l0.6881,-2.108l-0.6212,0.151l-0.2772,0.752l0.2103,-0.07401l-0.5544,0.752l0.2102,0.073l-1.3095,1.278l0.3442,0.151l-0.1112,0.217l-0.7161,0.08601l0.1391,0.224l-0.9654,0.146l0.2771,0.23l-0.2771,-0.151l0.0716,0.375l-0.344,0.44901l-0.5497,0.224l0.2055,0.23l-0.7598,-0.15199l-1.2379,1.049l-0.4826,0l0.1385,-0.298l-0.6164,-0.224l-0.1387,0.752l0.3441,-0.078l-0.3441,0.302l0,1.048l-2.1362,1.27901l-0.6166,0.82899l-0.1385,-0.151l-0.7552,1.87801l-0.1386,0.59999l0.2055,0l-0.5495,0.073l0,0.30301l-0.2772,-0.22501l0,0.22501l-0.1386,-0.22501l-0.1339,0.52701l-0.4157,-0.078l-0.1387,0.59999l-0.2723,-0.146l0,0.448l-0.4828,0.15201l0.2055,0.37599l-0.344,-0.07899l-0.1386,0.30299l0.2102,0.073l-0.2102,0.229l-0.067,-0.302l-0.3441,0.60001l0.1386,0.151l-0.5496,0.375l0,1.127l-0.0716,-0.302l-0.2055,-0.073l0.2055,0.375l-0.2725,-0.224l0,0.448l-0.1385,-0.526l-0.2055,0.605l-0.0718,-0.22899l-0.4109,0.07799l-0.1386,0.22401l0.2771,0.073l-0.8268,0.45399l0.1386,0.224l-0.2102,-0.151l-0.8937,0.37601l-0.067,-0.22501l0,0.37601l-0.5496,0.151l0.2055,0.224l-0.344,-0.224l-0.4159,0.59999l0.2103,0.224l-0.2771,0.078l-0.2773,-0.453l-0.755,0.903l-0.8269,0l-0.411,0.75l-0.1385,-0.448l-0.2772,0.60001l0.0716,-0.30301l-0.4157,0.45401l0.1386,0.073l-1.6488,1.054l-0.3441,0.521l0.0668,0.45399l0,-0.45399l-0.411,0.23l0,0.89801l0.2055,0l-0.4157,0.30199l-0.067,1.054l-0.1385,-0.15199l-0.1387,0.37599l0,-0.224l-0.344,0.82401l-0.2725,-0.375l0.1386,-0.22501l-0.3441,-0.07799l-0.1386,0.23l0.6166,0.59999l-0.3441,0.151l0.0716,0.224l0.2055,-0.15099l-0.2055,0.44899l0.2055,0.375l-0.3441,0l0.2056,0.37601l-0.6883,0.151l0.6213,0.75099l-0.2055,-0.224l-0.3441,0.073l0.3441,0.52701l-0.4158,0l0.2772,0.30299l-0.3441,0.07201l0.4111,0.22499l-0.067,0.229l0.2725,0.298l-0.478,-0.37601l-0.3441,0.45401l0.5496,0.29799l-0.6213,0.224l0.2772,0.37601l-0.2772,0l0.2772,0.453l-0.3441,0.22499l0.3441,0.302l-0.2772,0l-0.2055,0.752l-0.2055,-0.30299l0,0.52699l-0.34406,-1.127l-0.48274,0l-0.5496,0.44901l-0.13858,0.75101l-0.48268,0.30199l-0.27243,-0.30199l-0.27723,0.375l0.20551,-0.375l-0.27238,-1.12701l0.27238,-0.224l-0.27238,0l0.5496,-0.752l-0.07172,-0.67799l-0.41102,0.15199l-0.3441,0.67801l0.13858,-1.278l-0.75985,-1.27901l0.27717,-4.132l0.41102,-0.75099l-0.3441,-0.375l-0.82204,0.526l-0.96542,1.054l-0.54955,1.425l-0.75991,5.10699l-0.61653,1.205l-0.27735,1.65399l-0.61653,0.897l0.5496,1.054l-0.07166,0.82401l0.89867,0.15199l1.30472,2.629l0.20545,1.205l-0.13385,0.673l-0.55434,0.60001l0.68819,2.254l0.13859,2.556l-0.20551,0.75099l-1.37638,1.65401l-0.34409,1.8l-0.4112,0.45399l-0.07166,0.90199l-0.34409,0.75101l0.13858,1.50301l-0.41102,0.59999l0.47795,1.87801l-0.47795,0.673l0.68819,3.459l2.81991,3.00499l0.27717,0.82401l0.41102,0.078l-0.3441,0.29799l-0.06693,-0.29799l-0.07166,0.522l0.41581,0.23l0.06687,0.521l0.13858,-0.224l0.34415,0.45399l-0.20551,0.448l0.20551,0.97601l0.8937,1.127l1.17087,0.59999l0.20551,0.981l0.27723,0.07201l-0.13865,-0.224l0.41096,0.52699l0.89371,1.951l1.2426,1.27899l0.4111,1.12601l1.5818,1.049l-0.2724,0.30301l0.2724,0.526l1.3095,0.29799l-0.1385,1.653l0.5496,0.528l-1.0323,-0.07399l0.8268,1.127l-0.067,0.22499l-0.3441,-0.37599l0.478,1.127l-0.2055,0.151l-0.1386,-0.52701l-0.2724,0.976l0.8267,1.80501l-0.3441,0.897l-0.3441,0.07799l0,0.37601l-0.8267,0.90199l-1.3765,-1.42899l-0.2055,-0.67801l-0.2102,0l0,-0.522l-0.3442,0.073l0,-0.448l0.2773,0.29701l-0.2773,-0.60001l0.0717,-0.82401l-0.4157,-0.15199l-0.411,-2.18001l-0.2773,0l0.1387,0.37601l-0.2724,-0.37601l0.411,1.429l-0.6213,1.8l-0.2724,0.52701l-0.2772,-0.22401l-0.34419,0.151l-0.61647,-2.103l0.34415,-0.453l0.06681,-1.79999l-0.48262,-0.23001l-0.13859,-0.97499l-1.37644,-0.75101l-0.47794,-1.049l-0.55434,-0.078l-0.54961,-1.425l-0.61653,1.649l0,1.429l0.75511,0.679l-0.41102,-0.75099l0.06692,-0.606l0.13859,0.078l0.13858,1.65399l0.68825,0.44901l0.13379,0.976l0.5544,0.224l0.47794,1.95599l0.62126,0l-0.13859,0.073l0.82677,0.83l0.13858,0.52101l1.58199,0.37599l0.8267,0.82899l0.3441,1.95201l-0.4827,1.12599l0.2055,0.45401l-0.344,-0.151l-0.067,0.52699l-0.4826,-0.302l-0.2773,0.526l0.1386,0.44901l0,-0.37601l-0.411,-0.224l0.1386,0.44901l-0.1386,-0.146l-0.1386,0.297l0.2055,0l-0.0669,0.37599l-0.0717,-0.22499l-0.41099,0.22499l-0.06687,-0.976l-0.27729,0.224l-0.34404,-1.95099l0.06693,0.976l-0.20551,-0.60001l-0.13859,0.976l0.48268,0.75101l-0.34409,0.448l0,-0.60001l-0.06693,0.37601l-0.20551,-0.673l-0.07166,0.37601l-0.13858,-0.15201l0.13858,-1.278l-0.3441,-0.37599l-0.13858,-1.57501l-0.41102,-0.903l-0.34415,0l-0.13859,0.44901l0.54966,0.67801l-0.13385,1.27899l0.13385,0.375l-0.34415,0l-0.06692,-1.957l-0.8937,-2.25299l-0.27717,0l-0.13858,-0.44801l0.07166,0.67201l-0.20551,0l-0.07166,-0.897l-0.5496,-1.127l0.62126,2.703l-0.27717,-0.07301l-0.13858,1.27301l0.82677,1.278l-0.27717,0l-0.27243,-0.903l-0.3441,0.22899l0.13859,-0.45399l-0.41581,-0.90199l-0.48268,-2.927l-0.20545,0.22499l0.27717,2.854l-0.34409,-0.752l-1.17094,-0.224l1.58195,1.65401l0.41575,1.351l3.57486,2.93199l2.75285,3.078l3.3071,4.58099l1.582,2.62901l0.9605,2.556l0.0717,-0.903l0.1386,0.601l-0.5544,2.40399l1.3095,3.38101l0.8937,0.90198l0.9654,0.44901l1.5819,1.957l1.2378,1.12601l1.2379,2.103l0.2102,1.42401l-0.3441,0.30301l0.4111,0.073l0.411,1.05399l3.03,2.78l0.8267,1.72699l1.3047,3.078l0,2.629l0.6214,2.254l0.1385,2.10703l-0.0717,0.67398l0.7599,1.27802l0.067,1.05399l0.4158,0.073l0.2055,0.448l-0.2055,0.60501l0.3441,0.22501l0.5496,1.79999l-0.0718,0.45401l0.4827,0.526l0,0.37601l1.515,2.629l0.067,0.522l0.4826,0.22998l1.171,1.50201l2.0646,3.98099l0.6882,0.75101l0.3441,-0.07901l-0.2772,0.23001l3.0969,4.58099l0.7599,2.40399l0.0669,1.95203l0.4158,-0.52701l-0.1386,-0.37601l0.4826,0l0.2725,-0.60001l0.4158,0l-0.4158,0.15201l0.2772,0.82401l0.344,-0.224l-0.344,0.375l-0.2056,-0.52701l-0.2772,0.37601l-0.344,-0.146l-0.411,0.673l0.6165,1.72699l-0.1386,1.05399l-0.6165,0.151l0.7551,0.75101l-0.2055,0.60001l0.411,0.44901l0.1386,0.90198l-0.1386,1.05402l-0.2724,-0.37601l-0.5496,1.20001l-0.1386,0.97598l1.7205,5.259l0.344,3.23401l0.1386,-1.50201l0.2056,1.42401l-0.3442,0.375l-0.344,-0.151l-0.6883,3.005l-1.3763,1.95599l-1.6536,0.44901l-0.8268,-0.224l-0.6165,-0.75101l-0.8268,-0.30301l0.411,1.35602l-0.411,0.97598l0.4826,1.27802l-0.0716,0.97598l0.6882,3.15601l0.6882,1.12701l0,0.82401l1.4481,1.42999l0.2724,-0.60602l-0.411,-0.59998l0.8268,-0.526l-0.5496,0.67798l0.0669,0.302l0.8937,-0.37598l1.0323,0l3.5796,1.57599l0.411,-0.224l-0.3441,0.297l3.3741,2.70801l0.7551,1.50198l1.7205,-0.151l2.2752,0.75101l0.616,-0.37601l-0.4823,-0.302l0.2101,-0.29797l1.3048,0.90298l-1.5817,0.146l1.3095,0.82901l0.4107,-0.224l1.171,0.60001l0.5497,-0.45401l0.5491,-0.07199l-0.4822,-0.30301l0.2769,-0.297l0.2728,0l-0.1343,0.448l0.4828,-0.224l0.822,0.448l0.6213,-0.07199l0.2775,-0.60001l1.5817,0l0.54971,0.297l0.27219,-0.673l1.5149,0.151l-0.06689,-0.375l0.3444,0l1.4432,0.75101l0.6882,-0.23001l0.68819,0.60501l0.2775,-0.078l-0.0722,-0.90201l0.3444,-0.37601l1.032,0.078l1.3095,0.673l0.5498,0l0.2053,-0.44901l0.4828,0.07401l-0.2722,-0.298l-0.6213,0.15201l-0.2775,-0.60599l0,0.60599l-0.6882,-0.37601l0.0722,-0.30298l0.616,0l0.1391,-0.60001l-0.2728,-0.67801l0.4781,0l-0.0669,-0.44901l0.1385,0.90302l-0.27689,0.297l0.3438,0.15201l0.6882,0l0.6213,-0.60001l0.5497,0l0.3438,0.448l0.1391,-0.60001l-0.4829,-0.302l0,-0.298l1.5149,-0.90198l0.755,0.224l0.1392,-0.37601l-0.2776,-0.151l-0.06689,-0.448l0.41129,-1.35202l2.6189,-1.65399l0.4776,-0.75l-0.4776,-0.37601l0.2055,-0.59998l0.6881,-0.60001l0.7551,-0.078l-0.68819,-0.673l0.48289,0.224l1.7202,-0.37601l1.6539,0.298l0.0667,0.45401l0.34389,0l0.2774,-0.37601l-0.0715,-0.82901l0.5491,-0.147l0.3445,0.44901l0.4158,-0.375l-0.3443,-0.44901l0.2053,-0.67899l0.6882,-0.07199l0,0.375l0.20589,0.073l0.7598,-0.448l-0.7598,-0.30301l-0.20589,-0.90302l-0.41071,0.07901l0.41071,-0.07901l0.6213,-1.95099l0.4781,-0.90201l1.2427,-0.90198l0.3438,-0.82501l0.9609,-0.30301l0,-0.448l0.1385,0.073l-0.1385,0.30301l0.4154,0.07199l0.5498,-0.672l0.3444,-0.15198l0.8935,0.29797l1.2379,-0.44897l1.9978,0.375l1.2379,-0.82401l-0.06699,-0.302l0.34389,-0.22501l2.3362,-0.302l0.55,-0.60001l1.448,0l1.03201,-0.44901l0.756,0.37601l0.205,-0.52701l0.688,0l0.344,-0.45398l0.76,-0.146l1.859,0l1.099,0.82397l0.483,-0.59998l1.032,0.52698l1.1,-0.52698l0.071,-0.52701l0.894,-0.224l0.894,0.75101l0.621,1.72699l1.032,-0.224l0.067,-0.37601l0.621,0.151l-0.138,-0.67801l0.827,-0.75098l0.96,0.073l0.55,0.37601l0.416,-0.298l0.272,0.37598l0.21001,-0.37598l-0.138,-0.302l0.272,-0.298l1.377,-0.151l0.344,-0.30301l0.554,0.45401l1.238,-0.67801l0.273,0.15201l0.343,-0.45401l1.171,0.45401l0.416,0.60001l-0.139,0.375l0.345,0.224l-0.07201,0.37598l1.243,-0.59998l0.755,-1.27802l1.099,0l0.688,0.375l0.34401,-0.75101l0.62199,-0.151l0.205,-0.44897l1.032,-0.82401l-0.205,-0.45401l0.205,-0.82401l0.966,-0.97598l-0.07201,-0.45401l1.03201,-0.75101l0.278,-2.78101l0.82599,-3.22897l1.033,-1.57602l1.72,-1.12601l2.892,-0.75098l1.37601,-0.67902l1.993,-2.02899l0.75999,-0.298l2.06401,-1.57999l2.33699,-1.04901l2.89101,-2.93201l1.444,-1.048l1.24199,-0.22998l1.37701,-0.75101l2.13199,0.52701l3.02901,0.151l5.64,-0.82401l3.097,-1.05402l1.931,-1.12698l3.646,-1.20001l2.409,-1.20499l3.785,-2.02899l3.302,-2.40002l11.07899,-1.87799l2.95801,-0.30301l5.577,0.30301l2.203,-0.98099l1.582,-1.12701l6.261,3.08301l3.718,2.927l1.44299,1.50299l1.448,0l0.894,-0.44901l0.54901,0.375l-0.41,-0.448l0.134,-0.30301l0.68799,-0.52698l1.58601,0.30298l0.894,-0.151l2.409,1.65302l0.13899,0.44901l0.272,-0.297l0.55,0.297l0.89799,0.97598l-0.13899,0.45401l0.27299,-0.52798l1.032,0.52798l0.416,-0.37601l1.23801,0.224l0.411,-0.302l0.483,0.37601l-0.20599,-0.60001l-0.55,0l0.483,-0.07401l-0.621,0.07401l0.138,-0.298l-0.205,0l0.549,0l0.067,-0.52698l0.483,0.375l-0.067,0.298l0.272,-0.14603l0.278,0.44803l0.411,-0.44803l0.071,-0.67798l0.755,0.151l0.067,0.44901l-0.272,0.151l0.483,0.15097l-0.13901,0.60001l0.89401,0.07401l0.067,0.82901l0.554,-0.45401l1.377,2.02899l-0.21101,0.60001l-0.68799,-0.375l-0.134,2.02899l0.478,-0.073l0.27701,-0.59998l0.756,0.146l0.48199,-0.673l0.483,0.151l0.34399,-0.229l0.688,0.375l0.894,1.35699l0.27701,1.57501l-0.827,1.35199l-0.205,0l0.067,-0.60001l-0.345,-0.224l0.54999,0l-1.71999,-0.15198l0.827,1.57498l-0.827,0.98102l0.20999,0.297l0.411,-0.224l0.27701,0.44897l0.411,-0.22498l0.20601,0.45398l-0.13901,0.67401l-0.478,0l0.272,0.60001l0.278,-0.298l0.34399,0.073l0.34399,1.50299l0.755,0.67801l0.27701,-0.67801l-0.96501,-0.90298l0.138,-0.82401l0.13901,0.67801l0.688,0.75098l0.138,0.60001l0.89499,-0.37601l1.44301,0.82501l0.416,0.52701l0.34399,-0.224l-0.34399,-0.15201l0.134,-0.448l-0.479,0.146l-0.416,-0.44901l0.416,-0.30301l1.09999,0.52701l0.205,0.67902l-0.68799,0.073l1.515,1.35001l0.62099,2.48398l-0.34399,1.57602l0.478,0.151l3.23601,3.37997l0.89299,1.87802l0.07201,1.42499l-0.416,0.375l0.688,0.52701l0.34399,1.05399l0.13901,2.10202l0.27699,0.30298l0.067,0.75101l-0.205,0.298l0.138,1.05301l0.345,0.15198l-0.20599,-0.15198l0.20599,-0.599l-0.278,-0.23001l0.07201,-0.375l0.133,0.526l0.345,-0.073l-0.134,0.97601l0.411,0.151l-0.27699,-0.302l0.138,-0.15201l0.55,0.37601l-1.51001,0.37598l0.34401,-0.22498l-0.416,-0.073l-0.067,-0.60001l-0.54901,-0.375l0.205,-0.37601l0.34401,0l-1.37601,-0.37601l-0.13899,-0.90201l-0.688,0.97501l-0.34399,1.20001l0.34399,0.078l0.34399,-0.526l0.755,-0.073l0.965,1.048l0.067,0.52698l-0.272,0.302l0.55,0l1.032,0.82501l1.515,2.254l-0.071,0.52701l0.688,0l0.27701,-1.05402l0.755,-0.073l0.68799,0.297l0,0.60501l0.827,0.37601l0.20599,0.75098l0.55402,-0.30298l-0.41602,-1.87701l0.55002,-0.75198l-0.06702,-0.75101l-0.27798,-0.073l-0.06702,0.75101l-0.20499,-0.453l-0.621,0.67798l-1.17099,0.07202l0.621,-0.75l0.20499,0.224l0.345,-0.298l-0.41101,-0.526l0.06601,-0.67902l0.20599,-0.59998l0.62201,0.37598l-0.06702,-0.44897l-0.483,-0.302l0.20502,0l0.27798,-0.82501l0.47702,-0.302l0.483,0.151l0.07199,-0.44901l0.34399,-0.078l0.34399,0.83002l0.272,-0.98102l-0.20499,-0.673l0.34399,-0.15198l-0.20599,-0.60001l1.30499,-0.82901l1.03299,-1.64899l0.34302,-1.42902l2.276,-1.72699l0.20499,-0.60001l3.85202,-1.87799l0.13898,-0.229l-0.41199,-0.146l-0.20999,0.521l-0.34402,-0.073l-0.06699,-0.37601l0.54999,-0.375l0.138,-0.44901l0.483,0.073l-0.138,0.22501l0.34302,0.078l-0.06601,0.37601l1.78699,-0.45401l0.55002,-0.37601l1.104,-2.478l0.478,-0.44897l1.104,-4.13101l0.95999,-0.60602l1.104,-1.87799l1.444,0.67801l-0.27301,-1.05402l0.478,-0.375l0.211,-2.02399l-0.62198,-0.60501l0.20599,-3.38098l0.138,1.42999l0.483,0l-0.20502,0.67801l0.47702,0.448l-0.134,0.75198l0.961,0.90201l-0.41101,0.22501l0.41101,3.004l0.827,0.60001l0.27701,0.75198l-0.41501,1.05402l-0.06799,-0.52701l-0.621,0.302l-0.272,0.44901l-0.20999,-0.30301l-0.479,0.30301l-0.138,0.44901l-0.07202,-0.298l-0.20499,0.59998l0.27701,0.22403l-0.41602,0l0.41602,0.90298l0.34399,0l-0.13901,0.97501l0.689,1.50299l-0.06699,0.60001l0.41101,0.078l-0.20602,0.22501l-0.27698,-0.22501l-0.20502,0.97598l-0.20599,-0.073l0.34399,-0.45398l-0.54999,0.151l-3.02899,3.68399l0.27698,0.60001l-1.104,1.12601l0.41501,0.52698l-0.48199,1.20001l-0.827,0.073l0.54999,1.20499l0,0.97601l-0.345,1.27798l-0.34299,0.073l-0.345,0.75101l0.20599,0.30301l0.20999,-0.60001l0.345,0.146l-0.13998,1.05402l0.345,1.12601l-0.76001,4.20499l-0.755,0.60599l-1.03299,-0.82999l-1.72,0.30301l-0.965,-0.37601l-0.55002,1.42401l-0.41098,0.37598l0.34399,0.75101l-0.27701,0.67801l-0.54999,0.67798l-0.41101,0.07401l-0.27701,0.75101l0.621,0.75101l0.617,-0.151l0.68802,-0.82501l1.72,0.22501l0.689,-0.97601l0.965,0.07303l0.272,-0.526l0.75998,-0.37601l1.23801,0.302l0.827,0.75198l0.41101,0l0.89401,-0.75198l-0.27301,-0.75101l-0.20502,0l0.54901,-0.22501l0.54999,-2.40399l0.621,-1.12701l0.55002,-2.254l-0.34399,-0.302l0.13898,-1.12799l0.41,-1.12601l0.966,-1.04898l0.06702,-1.58002l0.89297,-1.35199l0.68903,1.35199l-0.20602,0.526l0.37802,0.078l0.44897,0.60001l0.34402,2.254l0.68799,0.60001l0.27301,0.90298l0.41599,0.224l0.41,1.35202l0.827,0.599l0.27802,1.20499l-0.211,-0.224l-0.20502,0.224l-0.06699,-0.224l-0.20599,0.44901l0.20599,-1.05402l-0.34399,0.151l-0.13901,1.12701l0.34399,2.405l-0.54999,1.12701l-0.41602,3.15598l-1.03101,0.52701l-1.09998,1.42401l-0.755,0.224l-0.827,1.12698l0.06699,0.37601l0.966,0.52701l0.89301,-0.297l2.47598,0.146l0.89902,-0.60001l0.272,-0.673l0.82599,-0.45401l1.72101,0.75101l-0.68802,-0.52701l0.68802,0.37601l0.06699,-0.224l0.27802,0.45401l0.41,-0.07901l2.48099,2.254l1.64801,1.72702l0.27798,0.75098l0.20502,-0.073l-0.138,0.375l0.34299,0.30301l-0.133,-0.52701l0.272,0.298l0.966,1.42902l0.34299,1.27798l0.41199,0.37601l-0.13898,0.07199l0.68799,2.03l-1.51001,-3.38l-1.79199,-2.70297l-3.57898,-3.83401l-1.03302,-0.37601l1.65399,1.27802l2.40802,2.556l1.72101,2.479l1.58197,3.15598l1.17102,3.453l0.621,3.23001l-0.34399,1.80499l-0.62201,0.75101l-1.23801,0.82501l0.689,0.97498l0,0.67801l0.483,0.75101l-0.13901,0.44901l-0.41599,-0.146l-0.06702,0.375l2.34201,4.35699l0.478,-0.15201l0.68802,0.75201l-0.06702,0.67798l1.30499,1.57501l0.966,2.556l0.20502,-0.375l-0.34399,-0.375l-0.41101,-1.42999l0,-0.44901l0.27701,0l0.54999,1.64899l0.06601,0.90201l-0.41,0.078l0.34399,0.75198l2.47501,2.02402l1.72101,-0.146l1.65298,0.297l1.64899,1.27798l1.44803,1.57602l0.54999,1.12698l-0.34399,0.67801l0.34399,0.30301l0.34399,-0.45401l0.827,0.45401l0.133,0.59998l0.41602,-0.59998l0.483,0.297l0.27301,-0.224l-0.41202,-0.97501l0.828,-0.67902l0.755,-0.151l1.78699,0.52701l1.85901,1.65302l0.965,0.15198l0.34399,-0.45398l1.03302,-0.073l0.89297,0.82397l0.41101,-0.073l3.16901,3.15601l0.27301,-0.078l-0.13501,-0.375l0.13501,0.526l1.24197,0.30301l0.82202,0.60001l1.17099,1.50198l1.23801,-0.073l0.621,0.44901l0.68799,1.12701l0.483,0l1.17099,-0.90302l0.20502,-0.60001l1.85999,-0.75098l2.064,-2.47803l0.617,0l0.34302,-0.45398l1.172,-0.448l0.89301,-0.90302l1.03299,-0.44901l0.68799,0.15201l0,-0.37601l0,0.297l0.41501,-0.151l0.68802,0.37601l0.47897,-0.146l0.27701,-0.30301l-0.54999,-0.073l0.617,-0.67798l0.138,0.30298l0.27698,-0.60599l-0.20499,-0.82401l-0.55402,-0.151l-0.82199,0.52701l-0.76001,0.073l-0.483,-0.60001l-0.13397,0.453l-0.483,-0.229l0,-0.522l0.61697,-0.60498l-0.06699,0.37598l0.621,-0.073l0.27301,0.224l0.13898,-0.59998l2.95801,-1.35101l0.27701,-0.67801l0.54898,-0.15198l0.27802,0.22998l0,-0.37601l0.20499,-0.07797l0.483,0.30298l0.41101,1.95102l0.27701,-0.07401l0.27298,0.44998l0.138,1.65302l-1.03198,0.90298l-0.483,1.27802l-0.755,0.44901l-1.03201,0.224l-1.582,-1.12701l1.64801,1.957l0.41602,0.97501l1.444,0l0.20499,-0.67801l0.827,-0.52698l1.03201,0.37598l-0.41,-0.522l0.34299,0l-0.138,-1.05399l0.272,0.073l0.483,-1.12701l0.68802,0l-0.272,0.151l0.20499,0.15201l0.20599,-0.22501l0.965,0.073l0.41101,0.30301l0.27701,0.90201l-0.13901,0.522l0.345,0.22998l-0.13901,0.522l-0.34399,0.375l-0.965,-0.297l0.07098,1.27802l-0.75897,0.224l0.07098,0.224l1.03201,0.37601l1.03299,1.95099l1.37601,-0.521l0.827,0.224l0.134,0.673l-0.34399,-0.522l-0.68802,-0.302l1.104,1.95099l0.34399,1.87802l0.755,-0.29703l0.07101,-0.52798l0.41199,-0.375l1.30899,0.82401l-0.41599,-0.75101l0,-0.298l0.34399,0.15201l0.76001,2.55099l-0.20999,0.224l0.68799,0.67801l0.13901,0.37601l-0.27301,0.37598l0.41101,0.673l0.54999,-0.073l0.138,-0.82401l0.483,0l0,-0.52798l-0.41602,-0.151l0.76001,-1.35101l0.06702,-1.57498l-0.34402,-0.30301l-0.34399,0.97501l-1.23801,0.60001l-0.06699,-1.42401l-0.41501,0l-0.345,-0.90201l0.483,-0.60001l0.483,-0.078l0,0.302l0.827,-0.37598l0.41,0.67798l0.89401,-0.375l0.62201,0.297l0,-0.297l0.27197,0l0,0.297l0.07101,-0.297l0.617,-0.078l0.07199,-0.29797l0.13901,0.22498l-0.211,0.151l0.483,0.073l0.20499,-0.302l0.62201,0.229l0,-0.45398l0.48199,-0.224l0.75601,0.151l0.276,-0.224l-0.48203,0.52197l8.12003,-6.90799l2.13599,-1.27798l1.78799,-0.52701l-1.37698,-0.073l-0.27701,0.37601l-0.41101,0.073l0,0.224l1.44302,-0.44901l-1.72,0.44901l-0.617,0.52698l0.27298,-0.59998l-1.582,1.12698l-1.17099,0.151l0.20999,-0.67801l0.617,-0.224l-0.27298,0.297l0.54999,0.078l1.099,-0.90198l0.34399,0.073l-0.13901,-0.224l0.41602,-0.15201l-0.34399,-0.073l0.483,0.073l0,-0.448l-0.34402,-0.07401l0.61603,-0.375l-0.68802,0.297l-0.13901,-0.526l0.13901,0.302l0.483,-0.302l0.68802,0.229l0.54999,0.75101l0.20499,-0.302l0.827,0.224l1.37601,-0.151l-0.138,-0.60001l0.27701,0.375l0.27701,-0.448l0.20499,0.224l-0.54898,0.44901l2.54199,-0.37601l3.78598,0.67801l0.82602,-0.302l3.03101,0.302l1.16998,0.151l0.41101,0.44901l0.827,-0.297l1.30499,0.224l0.34399,-0.37601l-0.06699,-0.375l0.06699,0.375l1.72,-0.60001l1.17102,-1.35599l-0.06702,-0.448l-0.20499,-0.37601l-0.34399,0.073l0.34399,-0.146l-0.41602,-0.37601l0.621,0.146l-0.07098,0.45401l0.27698,-0.078l0.06702,-0.37601l0.41599,0l-0.345,0.45401l0.13901,0.151l-0.41599,0.37601l2.065,-0.302l0.27698,-0.97601l-0.13898,-0.97601l0.345,-0.67798l-0.20602,-0.67801l0.55002,-0.44901l0.54898,0.37601l-0.272,-0.67801l0.06702,-1.04898l-0.621,-0.67801l-0.617,0.224l0.34399,-0.073l-0.27698,-0.448l0.41599,0l0.134,-0.37601l0.138,0.146l0.20499,-0.522l-0.20499,-0.151l0.27701,-0.75098l-0.48199,0l0.20499,-0.078l0.13901,-0.75201l-0.34399,0.30301l-0.06702,-0.37601l0.617,0.22501l0.41501,-1.50299l-0.34402,-0.151l0.47803,0.151l0.27698,-1.12701l1.17102,-1.87799l0.34399,-2.10202l1.03299,-1.65399l0,-0.75198l-0.62201,0.07898l0.62201,-0.07898l0.34302,-1.57501l-0.20502,-0.52701l-0.34399,0.073l0.272,-0.448l0.27701,0.526l0.41199,-0.97501l0.20499,-1.12698l-0.68799,-0.151l0.07101,-0.151l0.483,0.224l0.13397,-0.44901l0.41602,-0.151l-0.13901,-0.44901l0.55002,0.297l0.138,-0.82397l-0.20502,-0.90201l-0.483,-0.30301l1.23801,0.52701l0.34399,-0.52701l0,-0.522l0.27701,0l1.10001,-1.35599l0,-0.897l0.68799,-0.67902l-0.06699,-0.375l0.06699,0.22403l0.54901,-0.375l0,-0.60001l-0.20502,-0.30301l0.965,-0.60001l-0.138,-0.375l0.755,-0.298l0,-0.302l0.965,0.07202l0.06702,0.52798l0.68799,-0.298l0.13901,-0.60498l-0.41101,0.078l-0.27798,-0.302l0.13901,-0.60001l-0.27701,-0.75201l0.07098,0.22501l0.75601,-0.52701l0.34399,0.23001l0,-0.30301l0.138,0.75101l-0.27701,0.60001l0.27701,0.30301l0.41202,-0.37601l0.20999,-0.82901l-0.41602,0.078l-0.13898,-0.97598l-0.272,0.224l0.06699,-0.375l0.27701,0l-0.07199,-0.52701l-0.34402,0.151l0.13901,0.22501l-0.54999,0l0.41098,-0.15201l-0.133,-0.60001l-0.55499,-0.37601l-0.616,0l1.23801,0.22501l1.03198,-1.20001l0.20502,0.22501l0.621,-1.42999l-0.138,-0.673l0.68799,-0.224l-0.27701,-0.15201l0,-0.75098l-0.68799,0.22498l-0.06699,-0.22498l0.27698,-0.52701l0.478,-0.224l0.34402,0.151l-0.272,0.673l0.616,-0.526l-0.34399,-0.67401l0.138,0.15201l0.13898,-0.75201l0.41101,-0.375l0.07199,-0.67798l0.89401,-1.20001l2.13098,-1.50299l0,-0.229l-0.82199,0.078l0.06702,-0.45401l-0.34402,0l0.54901,-0.146l-0.06601,0.37601l0.41101,-0.15201l0,0.224l0.27701,-0.375l0.616,-0.073l0,-0.37601l-0.478,0.224l-0.138,-0.375l-0.27701,0.52701l-0.345,-0.60501l-0.616,0.151l0.27301,-0.297l-0.345,-0.151l0.345,-0.15201l-0.06802,0.224l0.345,-0.07199l0.20502,0.297l0.20599,-0.146l-0.06799,0.297l0.483,-0.97598l0.755,1.12799l0.34497,-0.44901l0.41,-1.80499l-0.20499,0.448l-0.68799,-0.297l-0.34402,0.151l0.20502,-0.302l-0.478,0.224l0.20599,-0.151l-0.13901,-0.298l0.34399,0.073l-0.34399,-0.224l1.03299,0.52701l0.27701,-0.30301l-0.211,-0.297l-0.20499,0.146l0.13898,-0.448l-0.27798,-0.22501l0.27798,0.073l0.27701,0.67801l0.06601,-0.224l0.27798,0.297l0.134,-0.151l-0.20599,-0.297l0.41602,-0.60001l-0.13901,-0.37598l0.617,-1.20502l0,-0.52701l-0.41101,1.05402l-0.34399,-0.30301l0.54999,-0.897l-1.03299,0.146l0,0.45401l-0.13901,-0.30301l0,0.37601l-0.20499,-0.298l-0.34399,0.22501l0.62097,-0.37601l-0.138,-0.224l0.54901,-0.078l-0.34399,-0.151l0.27701,-0.29797l-0.34402,-0.078l0,-0.44901l0.55002,0.30298l0,0.60001l0.138,-0.224l0.41199,0.07202l0.54901,-0.44803l-0.27301,-0.82999l0.27301,-0.375l0,0.302l0.27701,-0.078l-0.34402,0.45401l0.41101,0.224l-0.41101,0.151l-0.06699,0.60001l1.16599,-0.60001l-0.13797,-0.45401l1.03198,-1.35101l-0.06699,-0.224l-0.27701,0.37601l-0.20599,-0.15201l-0.06702,-0.375l0.27301,0l-0.20599,-0.297l0.621,-0.52798l0.483,0.15201l-0.55402,0.897l0.76001,-0.52103l0.06598,-0.60599l0.68903,-0.60001l0.68799,-1.35098l-0.20599,-0.073l1.927,-1.95602l-0.41101,0l0.138,-0.37598l-0.48199,-0.37601l0.41101,0.22501l0.07098,-0.22501l0,0.30301l0.13901,-0.37601l-0.349,-0.302l0.41599,0.224l0.06702,-0.375l0.34399,0.078l-0.478,1.19998l0.478,-0.59998l0.827,-0.37601l1.99701,-0.375l0.41098,0.224l0.82703,-0.60001l0.06699,-0.37601l-1.03201,0l-0.20599,-0.448l-0.138,0.673l-1.23801,0.224l1.099,-0.44901l-0.54898,-0.302l-0.828,0.302l0.07199,-0.526l0.20599,0.375l0.483,-0.375l-0.54999,-0.52798l0.134,-0.224l0.20999,0.37601l0.54901,-0.44901l-0.138,0.375l0.41098,0l0.13901,0.298l0.20502,-0.44803l-0.134,0.375l0.34399,0.22501l0.41101,-0.298l0.41199,0.298l0.138,-0.52798l0,0.52798l-0.34399,0l0.621,0.375l0,-0.673l1.03299,-0.60498l0.616,-0.75101l2.409,-0.82501l-0.20599,-0.52698l0.54999,-0.90201l-0.20599,-0.60001l0.621,-1.04898l-0.34299,-0.526l-0.41602,0.14999l0.34399,0.522l-0.20599,0.15198l-0.06699,1.27802l-0.34399,0.073l0.06699,-0.522l-0.41101,-0.52701l0.34402,-0.45398l-0.27701,-0.375l-0.13901,0.229l-0.272,-0.526l-0.20499,0.526l0.134,-0.60501l-0.345,-0.146l0.62198,0.22501l0.41101,0.14999l0.138,-0.526l0.34399,0.37601l0.76001,-1.35202l0.27301,-0.82898l-0.20602,-0.07303l0.27701,0.07303l1.30499,-1.57602l0.965,-0.302l-0.07098,-0.60001l1.51498,-1.952l-0.27298,-0.078l0.41098,-0.82397l1.17102,-1.20502l-0.13901,-0.673l0.89499,-1.42899l0,-1.12802l0.34302,-0.82397l1.17099,-1.35101l-0.20499,-0.82901l0.755,-0.90298l-0.06702,-0.60001l-0.621,-0.151l-0.06699,-0.75101l0.06699,-1.35199l0.48199,-0.97501l0.41101,-2.181l1.72101,-2.17499l0,-0.75201l0.89798,-1.20499l0.134,-1.50201l1.104,-1.57599l0.617,-2.32599l0.48199,-0.75101l0.345,-1.582l0.34302,-0.375l0.27798,-1.20001l-0.68799,-0.97501l0.48199,0.224l0.20599,0.52701l0.20502,-0.82999l-0.27701,-0.297l0.07199,-0.67801l1.582,-1.879l-0.20599,-0.375l0.34399,-0.90302l1.78799,-2.02899l-0.617,-0.146l0.617,0.146l0.27701,-0.375l0,-0.89801l0.755,-1.87799l-0.483,-0.151l-0.41101,-1.42999l0.20502,0.078l0.89499,-3.68301l-0.134,-1.19998l-0.13901,0.75198l0.06702,-0.90298l-0.272,0l-0.483,-0.52701l-0.07199,-0.526l-0.20502,0.078l0.20502,-0.15201l-0.20502,-3.077l0.27701,-1.12801l-0.41602,-0.22899l-0.06699,-1.127l-0.41101,-0.60001l0,-0.90199l0.272,-0.147l-0.34299,-0.526l0.20499,-0.45399l-0.34399,0l-0.134,-0.75201l-0.13901,0.23001l-0.48199,-0.151l-0.06699,-1.054l-0.483,0.30299l-0.483,0.151l0.62201,-0.30299l0.27197,-0.75101l-0.75497,-0.52699l-0.13901,-0.75101l-0.41,0.078l0.47699,-0.151l-0.06699,-0.59999l0.20599,0.44899l0.34399,0.073l0.20502,-0.67299l0,-0.30301l-0.82101,-0.073l0,-0.976l0.133,0.37599l0.345,-0.52699l0.89801,-0.30299l-0.34399,-0.151l-0.211,-0.82401l-0.20502,0.073l0.13901,-0.37599l-0.34399,-0.07301l0.06699,-0.224l0.27701,0.151l-0.20599,-0.52699l0.41098,-0.375l-0.13898,0.97499l0.828,1.80501l0.48199,-0.375l-0.55002,-2.70801l0.20602,-0.97499l-0.34402,0.97499l-0.41098,0.151l0.41098,-0.151l0.20602,-0.97499l0.34399,0l0.07098,-1.72701l-0.965,-0.90199l0.621,0.302l0.134,-1.58101l0.621,-1.951l-0.89401,0l0.41202,-0.07799l0.20499,-2.02501l1.85901,-3.834l-0.41101,0.224l-0.48199,-0.375l-0.20599,-1.576l-0.34399,-0.224l0.272,0.298l-0.34402,0.302l0.13901,0.52701l-0.13901,0.297l-0.34399,-0.14601l0.34399,0.44901l-0.27298,0.073l-0.276,0.67801l-0.20599,-0.37601l0.48199,-0.448l-0.138,-0.45399l-0.41101,0.07799l0.54901,-0.07799l0,-0.44901l-0.41501,-0.078l0.34399,0.078l0.07101,-0.52701l-0.34302,-0.448l-0.41599,0.07201l0,0.22501l-0.06702,-0.375l-0.20599,0.30199l0.20599,-0.30199l0.483,0l0.06702,-0.298l-0.483,-0.23l-0.34399,-0.60001l0.20999,-0.224l-0.55499,-0.224l0.211,-0.30301l0.34399,0.151l-0.34399,-1.726l0.34399,-0.078l-0.20999,-0.22499l0.41498,0.078l0,-0.45401l-0.41498,0.07901l0.27698,0.073l0.41101,-0.52701l-0.41101,0.078l0.41101,-0.229l0.13901,0.151l0.276,-0.44899l-1.30902,0.67299l-1.03198,-0.073l1.03198,-0.073l0.41602,-0.67799l0.41101,0l-0.483,-0.30301l0.345,0.078l0.27698,0.298l0,-2.10201l-0.689,-0.15199l-0.138,-0.52101l-0.34399,0.29701l-1.444,-0.52701l-0.41599,-0.97499l-0.68802,-0.15201l-0.138,0.30299l0.138,-0.37599l-0.20499,-0.073l0.965,0.146l0.20599,-0.224l-0.827,-1.278l-0.20599,0.078l0.20599,-0.078l-0.54901,-1.50301l0.138,-0.52199l-0.41599,0.146l0.483,-0.297l-0.13901,-1.429l-0.54901,-0.976l-0.20599,0l-0.138,0.52699l-0.27798,0l0.07199,0.52701l-0.13901,-0.52701l0.27701,0l0.06799,-0.82899l-0.966,-0.29701l-0.89301,-1.20599l0.27701,0.37601l-0.20599,-0.14601l-0.55399,0.29701l0.27698,0.22499l-0.41098,0l0.61697,-0.522l-0.89398,-1.35599l-0.06702,0.52599l0.06702,-0.52599l-0.41101,-0.97601l-0.27798,0.151l0.20599,-0.224l-0.616,-1.35199l-0.211,-2.556l-0.54901,-1.35101l-0.483,0.903l0.34399,-0.60599l-0.41098,0l-0.483,-0.82401l-0.483,-0.151l0.483,0.078l-0.34302,-1.205l0.20502,-0.224l-0.272,-0.22501l-0.345,1.04901l-0.07101,-0.60001l0.34302,-0.224l-0.95999,-0.75101l-0.41602,-0.07399l-0.06699,0.44899l0.345,-0.073l0,0.37601l0.40997,0.37599l0.07202,0.224l-0.20502,-0.07899l0.133,0.52701l-0.47699,-0.67201l-0.68799,-0.455l-0.27802,0.455l0.27802,0.29701l-0.211,-0.22501l-0.20502,0.52699l-0.20599,-0.90199l-0.41101,-0.15201l-0.20999,0.37601l-0.20499,-0.673l-0.06802,0.82401l-0.27698,-0.82401l0.20599,-0.151l-0.54999,-1.127l-0.20602,0l-0.20499,-1.054l-0.41602,0.52701l0.13901,-0.825l-1.37698,-0.82901l-0.272,-0.59999l0.134,-0.60001l-0.20602,0.15199l-0.20499,-0.60599l0.20499,-0.14601l-0.34399,-0.22899l0.27802,0l-0.76001,-0.60001l-0.27301,-1.049l0,0.752l-0.20499,0l0.133,-0.606l-0.41,-0.297l-0.06699,0.59999l-0.41602,0.151l0.20502,0.224l-0.272,-0.224l-0.07199,0.903l-0.20602,-0.903l-0.616,-0.90199l0.34399,0.073l0,-0.22501l-0.89798,-0.75099l0.75998,0.151l0.20502,-0.302l-0.55002,-1.127l-0.138,-1.2l-0.27698,-0.151l0,-0.22501l0.34399,0.22501l0.483,-0.673l-0.06702,-0.52699l-0.54999,-0.30301l0.272,0l0.07199,-0.526l-0.48199,-0.44899l0.54901,-2.32701l-0.20602,0.44901l0.20602,-0.752l-0.34402,0.30299l-0.13898,-0.605l0.827,0.302l-0.06702,-0.75101l0.82202,-2.629l-0.616,-0.59999l0.138,-1.65401l-0.27701,-0.073l0.20499,0.44901l-0.48199,0.52699l0.13901,0.599l-0.483,-0.07199l-0.20599,-0.45401l0.41599,0.375l0,-1.048l-0.48199,0.07301l0.138,-0.22501l-0.34399,-0.97501l0.27301,0.224l0.07098,-0.224l0.41101,0.673l0.483,-0.903l-0.68903,-0.375l-0.138,-1.127l-0.27698,0.229l0.20999,0.44899l-0.138,0.67801l-0.07199,-0.375l-0.34399,0.224l0.138,-0.302l0.20599,-0.07401l-0.478,-0.37599l0.34399,-0.078l-0.20999,-0.448l0.20999,0.224l0.134,-0.298l-0.961,-0.526l-0.483,1.12601l0.27798,0.45l-0.27798,-0.15199l0.06799,0.23l0.55301,0.375l-0.621,-0.229l0.75598,0.82899l-0.345,-0.30199l-0.20499,0.07799l1.03201,0.75101l-0.06702,0.297l-0.27701,-0.224l0,0.30299l-0.138,-0.605l-0.478,-0.147l0.34302,1.35201l0.479,0.151l-0.41101,0l0.20499,0.522l-0.68799,-1.35201l-0.41101,0.37601l0.138,-0.29701l-0.27698,-0.30299l0.27698,0.073l-0.621,-0.59999l0.20602,0.75099l-0.20602,-0.673l-0.41098,-0.07799l-0.41602,-0.75101l-1.099,-0.97501l0,-0.30299l-0.965,-0.22501l-0.41101,-0.52599l0.20502,-0.44901l-0.34399,-0.37601l0,-0.59999l-0.621,-0.67801l-0.06702,-0.903l-0.41098,-0.448l-1.104,0.67801l-0.617,1.79999l0.617,0.224l-0.68802,0.078l0.966,4.132l0.27701,0.37601l-0.62201,-0.52701l-0.27698,-1.2l-0.82202,-0.82899l-0.75998,-1.65401l-0.34402,0.605l-1.23798,0.825l0.13898,0.15001l-0.41599,-0.078l-0.478,0.981l0.34399,-1.127l0.68301,-0.45401l0.13898,-0.97499l-0.13898,-0.60001l-0.47702,0.297l-0.483,-0.297l-0.41098,0.60001l0.27298,-0.151l-0.13898,-0.37601l0.827,0l-0.27301,-0.82399l-0.76001,-0.078l-0.41098,0.526l-0.27701,-0.151l1.23801,-0.673l-0.41101,-1.205l-0.20599,0.078l0.27301,-0.302l-0.41101,-1.424l0.138,-0.606l-0.621,-1.502l0.20499,-1.127l-0.41,0l0.34302,-0.224l-0.276,-0.298l-0.06702,-0.82899l0.34302,-0.151l-0.138,-0.146l0.41599,0.375l0.06702,-0.229l-0.345,-0.22501l-0.06601,-1.049l0.755,-1.20399l-0.27701,-0.22501l-0.345,0.60001l-0.06699,-0.375l-0.41,0l-0.211,-0.298l0.27798,-0.605l-0.54999,0.151l-0.07199,-0.44901l-0.54901,0.298l-0.06699,0.375l0,-0.60001l-0.27701,-0.224l0.41501,0l0.06699,-0.60001l0.41101,0.151l0,-0.22899l-0.755,-0.37601l0.617,0l-0.06702,-1.64799l-0.34399,0l-0.20599,-0.45401l-0.89401,0.903l0.27301,-0.528l-0.34399,-0.07199l0.48199,-0.45399l-0.272,-0.522l-0.34399,0.073l0.27301,-0.151l0.20499,0.224l0.20999,-0.976l-0.55399,-0.151l0.621,0l0.06699,0.30299l0.21002,-1.054l-0.27701,0l-0.34399,-0.59999l-0.138,-0.44901l-0.27301,-0.151l-0.13901,0.44901l-0.27701,-0.82401l-0.75497,0.07201l-0.27701,0.30299l0.138,-0.75099l0.20599,0.073l-0.20599,-0.37601l0.54999,0l-0.272,-0.44899l-0.345,0.15199l-0.55399,-0.60001l-0.478,0.14601l-0.27701,-0.522l-0.68799,0.522l0.138,-1.04901l-0.54901,-0.151l0.134,-0.30199l0.48199,0l-1.237,-1.20001l0,-0.52699l-0.483,0.078l0.621,-0.52701l-1.03198,-1.429l0.41098,0.302l0.55002,-0.83l-0.345,-0.89699l0.966,0.67299l0.48199,-0.37599l0,-0.375l0.20599,1.127l0.34399,0.45399l0.89301,0.224l-0.48199,-0.67799l0.34399,-0.15201l-0.134,-0.146l-0.27701,0l-0.41098,-0.604l0.06699,-0.52199l-0.20499,-0.15201l0.272,-0.375l-0.82202,-0.976l0.41101,-0.078l-0.27701,-0.151l0,-0.522l-0.27301,-0.07799l-0.27698,0.52699l-0.616,-0.073l0.134,-0.52701l-0.27301,0.07301l0,-0.29701l0.27301,-0.60599l-0.41202,0.52699l-0.06699,-0.673l-0.138,0.673l-0.34399,-0.151l0.27197,-0.44901l-0.478,0.22501l0.20602,-0.44901l-0.34402,0.07301l0,-1.50201l-0.41599,0.375l-0.82199,-0.59999l-0.21002,0.75099l0.55402,0.224l-0.68802,0.45401l0.478,0.07399l-0.61697,-0.15199l-0.07202,0.30299l-0.133,-0.07799l-0.07199,-0.298l-0.755,-0.151l0.06699,-0.15201l-0.75497,-0.82399l0.20499,-0.151l-0.621,-0.52701l0.138,-0.297l0.345,0.073l-0.06699,-0.67799l-0.27802,0.078l-0.20499,-0.45401l-0.827,-0.224l0.13898,0.302l-0.54999,-0.375l-0.27701,-0.903l-1.17099,0.45401l-0.55002,-0.151l-0.48199,-0.60501l0.13901,0.38101l-0.41199,-0.757l-0.138,-1.649l-0.27802,-0.45399l-0.82199,-0.14601l-0.138,0.89801l0.34399,0.90199l0.27301,0.078l-0.20602,0.07401l-1.30399,-0.37601l-0.89899,-1.502l-0.20602,0.224l0.13901,-0.44901l-1.03198,-0.903l0.62097,0.679l0.54901,0.297l0.06799,-0.448l-0.75598,-0.30299l0.68799,-0.073l-0.138,-0.67801l-0.41101,-0.22499l0.41101,0.15199l0,-0.30299l-0.20599,-0.673l-0.34399,0.146l0.27298,-0.073l-0.06699,-0.224l-0.54999,-0.976l-0.68802,-2.107l-0.27701,-0.225l0.68802,1.35101l-0.272,0.45399l-1.51501,-0.45399l-0.75998,0.45399l-0.06702,-0.376l-0.68799,-0.224l-0.20599,0.376l0.06699,-0.454l-0.34399,0l-0.138,0.60001l-0.13501,-0.898l-0.75998,-1.356l0.27798,-0.521l-0.483,-1.054l0.06702,0.375l-0.755,1.2l-0.965,-0.146l-0.41101,-0.454l-0.20599,0.079l0.13901,-0.376l-0.55502,-0.229l-0.134,-0.752l-1.448,-0.146l-2.203,-1.805l-2.13199,-3.15601l1.10001,-3.005l-0.345,-0.073l0.345,-0.303l-0.06702,-0.527l-0.138,-0.224l0.34302,0.078l-0.06601,-0.454l-0.20599,-0.151l-0.07101,0.23l-0.20599,-0.37601l-0.27701,0.07301l0.21002,0.303l-0.34399,-0.606l-0.41602,-0.073l-0.272,0.30299l0.20502,-0.45399l-0.34402,-0.151l0.20602,-0.073l-0.13901,-0.303l-0.34399,0.151l-0.20602,-1.35101l0,0.527l-1.37598,-2.332l-0.13901,-1.127l0.41599,-1.048l-0.20999,-0.151l0.20999,0.151l0.34402,-0.678l-0.34402,-0.152l0.34402,0.079l0.20599,-0.678l0.06699,0.224l0.34302,-0.146l0,-0.981l0.345,-0.6l-0.345,-1.049l0.345,-0.151l-0.13901,-0.903l0.62201,-0.751l-0.13901,-0.678l-0.27301,0.454l-0.34299,-0.151l0.272,0.151l0.27698,-0.527l-0.68799,-1.1997l0.20499,-1.5811l-0.75497,-1.0485l-0.55402,-2.7078l-0.617,-1.0486l0.13901,-0.9024l0.755,-1.3509l-0.41101,-0.4539l-0.20999,0.4539l-0.34399,0.0728l-0.27301,-0.5267l-0.89398,0.6782l-0.21002,-0.303l0.21002,-0.3752l-0.276,-0.1515l-0.345,-0.9757l-0.41101,-0.3752l-0.13901,-0.52721l-1.03198,-0.8243l-1.104,-2.0291l-0.06702,-0.903l-0.68799,-0.297l0.13901,-1.6539l0.41098,-0.7515l-0.41098,-0.1509l0.89398,0.0781l-0.54999,-1.4296l0.54999,-1.2782l-0.75598,-2.029l-0.68802,-0.1462l0.41101,-1.2782l-0.27701,-0.4538l0.20999,-1.1267l-0.55399,-1.1272l0.138,-0.9752l-1.23801,-0.8243l0.689,0.1509l0.13901,-0.4539l-0.27798,-0.5266l-0.68802,0l0.483,0l0.755,-1.4243l-0.134,-0.3758l0.89401,-0.5266l-0.20602,-0.7515l-0.34399,0.4485l-0.55399,-0.0728l-0.20599,-1.5024l-0.34402,-0.3757l0.34402,0.22421l0.483,-1.0485l0.965,-0.9805l-0.07202,-0.4492l-0.82599,0l-0.68799,-1.1266l0.138,-0.6001l-1.44302,-0.2242l-0.20499,-0.3758l-0.20999,0.2977l0,-0.3758l-0.41202,0.1515l-0.34399,-0.7515l-0.68799,-0.3758l0,-0.8242l-0.34402,-0.2296l-0.13898,-0.7509l-1.30402,-0.2977l-0.211,-0.6781l-1.16599,-0.0728l-0.76001,-1.1273l0,-0.5994l0.483,-0.903l-0.755,-0.0781l0.20502,-1.3509l-0.96503,-1.4243l-0.34399,0l-0.41098,0.897l-0.621,0.3758l0.138,0.1515l-0.34402,-0.0734l-0.62097,0.3758l-0.755,-0.1515l-0.755,-0.7509l-0.27802,0.0728l0,0.9024l-0.34399,0.8296l-1.65298,1.2l-0.961,-0.0728l-0.20602,0.4486l-0.138,-0.5273l-0.827,-0.2242l-0.621,-0.5267l-0.68799,-1.2l-0.479,-2.1025l-0.138,-2.7075l-0.76001,-0.7513l-0.27197,-1.3511l-0.76001,-1.4295l0.48199,-2.2537l0.41602,-0.673l-0.55402,-0.0782l0.483,0l0.20499,-1.5756l-0.20499,-0.6782l-0.617,-0.6729l0.06702,-2.0294l-0.20502,-0.6783l0,-2.7023l0.616,-1.1999l-0.755,0.2243l-0.41098,-0.2243l-0.621,0.4487l0.20499,0.5268l-0.34399,0.2974l0,-0.2974l-0.41101,-0.1512l0.272,-0.1513l-0.34399,-0.1513l0.07199,-0.8973l0.89401,-2.0294l-0.27701,-0.1513l0.48199,-0.6782l-1.51498,-0.9756l-0.41101,-0.8243l-0.41098,0.2244l0.478,-0.3756l-0.06702,-1.0538l-0.27698,-0.3757l-0.82202,-0.5999l-0.55499,0l0.14001,0.2243l-0.345,-0.3756l-0.20502,0.3026l-0.27798,-0.3026l0.27798,-2.2537l-0.41101,-0.6l0.41101,0.3026l1.23801,-2.1807l0.48199,0.0782l0.138,-0.3025l-0.34299,-0.2243l-0.483,0.2973l-0.27701,-0.8243l-0.617,-0.3756l-0.82599,0.5269l-0.689,-0.0783l-1.44302,-1.4242l0.134,-2.7076l-0.34399,-2.3267l0.55402,-1.0537l-0.27701,-0.8973l-0.55002,-0.6782l0,-2.78057l-0.82599,-1.7268l-0.54999,0.15131l-0.27802,0.44865l0.27802,-0.75121l-0.34402,-0.22439l-0.62198,0.15131l0.345,-0.60002l-0.345,-0.52682l0,0.22433l-0.41,-0.22433l-0.20599,0.29735l0.272,0.75127l-0.41101,-0.37564l-0.20502,0.37564l-0.965,0.37557l0.755,-0.29735l0.27701,-1.57555l0.34399,-0.07823l0.827,-1.12684l-0.62198,-0.29741l-0.34402,-0.60511l-0.41098,0.37557l-0.89401,-0.07302l-0.48199,1.50248l-0.89401,0.97559l-1.31,0.07302l0.20599,0.45386l-0.54898,-0.37557l0.20499,-0.15131l-0.95999,0.59996l0.20499,1.65378l0.138,-0.44877l-0.20999,0.75126l0.13901,0.29741l0.138,-0.29741l-0.06702,0.37564l-0.62097,1.273l0.13898,1.95625l-0.483,1.1269l-0.41098,0.9025l0,0.2972l-0.138,0l-0.41602,1.5808l-0.06699,0.146l-0.27701,0.9026l0.07101,0.2243l1.17099,-0.0731l-0.27701,0.4487l-1.17099,-0.1461l-0.616,2.5511l0.06699,0.2244l0.27701,-0.1462l-0.20999,0.2244l0.48199,0.2243l0.27701,0.6783l0.345,-0.7513l0.54898,0l-0.48199,0l-0.27301,1.1999l-0.89798,-0.5269l-0.27301,0.5269l0.20599,0.9025l-0.54999,0.2974l0.483,-0.3757l-0.621,-2.1754l0.276,-0.3756l-0.41501,-0.0783l-0.34399,0.3757l-1.444,3.1562l0.34399,0.1513l0.345,-0.3756l-0.20599,0.2243l0.41098,0.3026l-0.41098,-0.0782l-0.13901,0.2295l0.06702,-0.2295l-0.68802,-0.0731l-1.64899,4.3562l0.41199,0.3026l0.82599,-0.3026l0,-0.2974l-0.54999,0l0.345,-1.2781l-0.13901,0.2243l0.34399,0.3025l0.89401,-0.0782l-0.89401,0.5269l0.82703,0.4487l0.68799,0.9025l0.755,-0.2974l0.20599,0.2244l0.54901,-0.3756l0.483,0.4486l-0.617,-0.073l-0.276,0.2973l-0.13901,-0.2243l-0.89401,0.6782l0.68802,0.2974l0.483,0.8294l0.68799,-0.1513l-0.20499,0.0731l0.20499,0.1513l-0.82599,0.2243l0.34299,2.1807l-0.621,-1.0538l0.07202,-1.4242l-0.483,-0.6l-0.41101,0.1461l0,-0.3756l-0.965,2.3319l-1.17099,0.8243l-0.20502,-0.1513l-0.41199,0.6052l-0.21002,0.5217l0.41602,0.7512l0,1.5808l0.827,1.3512l-0.55499,1.0538l0.20999,0.1461l0.479,-0.4487l0.34299,0l-0.68799,0.4487l0.76001,0.6052l-0.27701,-0.0783l0.13901,0.5269l-0.27701,-0.3756l-0.20599,0.1513l0.13898,-0.3756l-0.54999,0.2243l-0.27701,-0.3026l-1.23798,2.1076l-1.03201,4.2779l-0.06699,1.0539l1.44299,2.1806l0.27798,1.4243l-0.27798,-0.0731l0.06699,1.1999l-1.03198,2.8537l0.68799,5.1126l0.55499,1.0485l0.34302,1.5806l-0.55402,0.8976l0.138,0.6054l-0.616,0.5994l-0.07199,0.0734l-0.54901,1.7266l-0.06699,0.3024l-1.03201,2.5563l-1.03299,4.8049l-0.20999,0.303l0.62097,2.1752l-0.965,1.6539l-0.75598,2.4782l-0.138,0.2296l0.07199,0.9752l-0.483,0.9757l-0.41599,0.4486l-0.34302,1.35619l-0.06799,0.0734l-1.30899,1.4291l-0.134,-0.0782l-0.34399,1.2054l-1.24301,1.4243l-0.133,0.6l0.272,0l-0.483,1.8048l-0.134,0.3024l-0.55402,2.4782l-0.75497,1.1266l-1.582,0.6001l-1.23801,0.9757l-0.34399,0.0781l-1.44803,0.75159l0.07202,-0.30299l-1.03302,0.4491l-1.65298,0.1509l-0.27701,0l-1.37698,0.2243l-1.099,-0.2243l-0.54901,-0.4485l-0.27802,-0.7509l-1.17099,-0.4539l-0.20499,-0.37579l-0.755,0.07819l-0.34399,-0.37579l-0.89401,-0.2243l-0.41599,-0.5266l-0.13901,0.44849l-0.06702,-0.6728l-0.54898,-0.303l-0.827,-1.05379l-0.34402,0.2295l0.06702,-0.3023l-0.34399,-0.2243l-1.444,-0.1515l-0.755,-0.6781l-0.89301,-1.8001l-0.211,-1.429l0.211,-0.7515l-0.76001,-0.3758l-0.621,-0.8243l0,-0.5266l-3.37,-1.1267l-1.51498,-1.0539l-1.78702,0.1509l-1.448,-0.6728l-0.27298,0l-0.07101,0l-2.065,-0.98051l0,-0.07339l-0.617,-0.3023l-3.23499,-3.6049l0.13901,-0.07339l-1.104,-1.7267l-0.134,0.37579l-0.07199,-0.8296l-2.203,-0.9758l-0.134,0l-1.51501,-0.3751l-1.37601,-0.903l-0.345,-0.6728l-0.20499,0.37569l-0.138,-0.30299l0.34299,-0.22421l-0.20499,-0.15089l-0.27701,-0.0734l0.27701,0.0734l-0.20999,0.15089l-0.82202,-0.7509l-0.89899,-0.2243l-1.03201,-1.1273l0.07202,0.2243l-0.27802,-0.0781l-0.34299,-0.1462l-0.55002,0.29771l0.483,0.4538l-0.13898,0.2243l-0.89401,-0.5266l-0.27701,0.3023l0.20599,-0.3023l-0.47897,-0.2249l-0.68802,0.2976l0.06702,-0.4485l-0.48203,0.6781l-0.41098,-0.3023l-0.27701,0.1508l0.27701,-0.22421l-0.20599,-0.3024l0.272,-0.0734l0.20599,-0.2296l-0.478,-0.3751l0.272,0.1509l-0.06601,-0.2971l-0.41602,-0.07809l0.13901,-0.3757l-0.41199,0l-0.82602,-0.7515l-0.483,0.15141l0.20502,-0.3023l-1.37601,-1.0492l-0.20599,-0.3752l-0.95999,-0.3757l-0.211,0.2972l0,-0.4487l-0.61603,-0.67799l-0.27698,-1.7267l-0.55002,-0.1515l0.20599,-0.2243l-0.41098,0.0782l-1.582,-1.1267l-0.966,-0.3758l0.13901,-0.1509l-1.51501,-1.4296l-1.30899,-0.9024l-0.41101,0.1509l-0.27798,-0.6728l-0.41,0.5219l0.20499,-0.6734l-0.27298,-0.2242l-0.82602,-0.0782l-0.27698,0.4539l0.20499,-0.5266l-1.166,-0.8296l-0.554,-0.8977l-0.27299,0.2976l0.205,-0.4485l-0.41,-1.2781l-0.278,-0.0734l0.278,0l-0.13901,-1.0539l-0.54999,-0.1509l0.411,-0.0734l0.483,0.3758l0.411,-0.6781l1.104,-0.4486l-0.20999,-0.3029l0.20999,-0.9024l0.68799,-0.9755l0.20599,-0.8243l0.755,-0.0782l0,-0.5218l0.68802,-1.2051l-0.34399,-0.4486l0.54999,0.1513l1.448,-1.1269l0.54901,0l-0.34402,-0.3756l0.41101,-2.2537l0.41602,-0.6052l-0.07101,-0.3756l0.138,0.3756l0.483,-0.7512l0.34399,-1.9512l0.755,-1.3512l-0.68799,-0.0782l0.13898,0.3756l-0.961,0.9026l-0.483,0l-0.41599,-0.4487l0,-0.2243l0.55499,-0.3026l-0.13901,-0.2244l-0.41599,0.0731l-0.133,-0.5999l-0.483,-0.4487l0.483,-0.3756l-0.073,-1.5808l0.483,-0.2243l0.41199,0.5999l0,-0.3756l0.34299,0.0783l0.13901,-0.5269l-0.54898,0.073l-0.06702,-0.5269l-0.483,-0.2243l0.34399,-1.0486l0.483,-0.4539l0.20502,0.5999l0.13898,-0.8242l0.47803,-0.2244l0.34399,1.2782l0.138,-1.0538l0.34399,0l0.20599,-1.0539l0.55499,-0.3756l-0.13998,1.1268l0.54999,1.0539l-0.20499,-0.5999l0.483,0.073l0.20499,-0.527l0.34399,0.0783l0.06702,-0.5268l-0.41101,-0.4487l0.34399,0.073l0.13901,-0.3026l0.34399,0.6052l0.41101,-0.1513l0,-0.4539l-0.27798,-0.2243l0.48297,-0.8243l0.41602,0.2974l-0.138,1.1268l0.41,1.0539l-0.272,0.3756l-0.483,0l0.13901,0.3025l-0.27701,0.2975l0.27701,0.3755l0.755,-1.1268l0.54999,-0.2974l0,0.3757l0.27701,0l0.13898,-1.0539l0.41,-0.3756l0.20602,0.2243l0.41599,-1.3512l-0.34399,-0.073l0,-0.4539l-0.41602,-0.3756l-0.272,0.3026l-0.34497,-0.4539l0.961,0.1513l0.27698,-0.3756l0.06702,0.6782l0.20499,0.073l0.41602,-0.7512l0.20599,0.7512l0.483,-0.2243l-0.34399,-0.7513l-1.17102,-0.4486l0.138,-0.4539l-0.483,-0.073l-0.41,-0.4539l0.13303,-0.5999l-0.272,-0.3757l0.89398,0.4539l-0.13898,-0.6782l0.27698,-0.2243l0.617,0.673l-0.20599,-0.1461l-0.06601,0.4487l0.48199,0.3756l-0.13898,-1.5755l0.27298,-0.3757l0.827,0.2243l-0.20599,-0.5999l0.13901,-0.4539l0.617,-0.7512l0.276,0l-0.138,-0.2974l-0.483,0.1461l0.483,-0.4486l-0.27301,-0.0731l0.13501,-0.0783l-0.13501,-0.6729l0.823,-0.2296l0,0.5269l-0.41199,0.4539l0.13901,0.3756l0.138,-0.4539l1.51099,-1.7268l0.76001,-0.2243l0.20499,-0.3756l-0.755,0l0.272,-0.3026l-0.138,-0.5269l-0.34399,-0.073l0.07199,-0.4487l-0.62198,-0.5269l-0.48203,0l-0.41199,-0.7512l-1.237,0.3756l-0.07199,0.2974l0.34399,-0.2244l-0.06702,0.5269l0.13901,-0.4486l0.138,0.4486l0.345,-0.2243l0.133,0.2973l-0.133,0.4539l-0.345,-0.0782l-0.20999,0.3026l-0.616,-0.1513l-0.07199,-0.527l-0.617,-0.5217l-0.20502,-0.6781l0.06702,-0.9026l-0.27802,-0.073l-0.41,-1.2051l-0.62198,0.1512l0.20999,0.2244l-0.48199,-0.3756l0.20599,-0.4487l1.30899,-0.5269l-0.211,-0.6l0.13901,0.3757l-0.20499,0.2243l-0.34402,-0.073l-0.483,0.5269l-0.54999,-0.2296l-0.138,0.3757l-0.20599,-0.1461l-0.965,1.3512l-0.20602,-0.1513l-0.68799,0.2243l-0.68799,0.9025l0.07199,0.3026l-0.62201,0.1461l0.06702,0.3756l0.621,-0.073l0.06699,0.3756l1.104,0l0,-0.2243l0.54999,0.7512l0.41101,-0.2243l-0.68799,0.3756l0.13898,0.1461l-0.41199,0.4539l-0.276,1.3511l-0.89499,0.9756l-0.82602,-0.2244l-0.06699,-0.3025l-0.827,0.2295l-0.27701,-0.3756l-0.54901,0.8974l0,-0.4488l-0.54999,-0.1512l0.48199,-0.7513l-0.68799,0.2244l0.827,-1.273l-0.13901,-0.3756l0.20599,0.0731l0.41101,-0.7513l-0.617,0l-0.138,0.3756l-0.483,0.073l-0.41098,-0.7512l0.61697,-0.5217l0.82602,-1.6537l-0.54901,0.3756l0,0.3756l-0.483,0.4486l-0.54898,0l-0.27802,0.527l-0.06699,-0.527l-1.03201,0.6l-0.34399,0.3756l0,0.7513l-0.20502,-0.3757l-0.483,0.527l-0.827,-1.1999l0.13901,-0.7513l0.965,-0.8295l1.099,-1.3511l0.68802,-0.0731l0.345,-0.4539l-3.164,1.2052l-1.24301,1.1999l0.20999,-0.3757l-0.41498,-0.5269l-0.27301,-0.073l-0.82701,0.7512l-0.48299,-0.1513l0.13899,-0.2243l-0.688,-0.0731l-0.75999,0.6l0,0.4486l-1.032,0.3757l1.104,0.7513l0.549,-0.527l-0.138,0.527l-0.827,0.2242l-0.205,-0.5217l-1.23801,0l0.826,0.8974l-0.138,0.1513l-0.55,-0.4487l-0.138,0.1513l-0.20599,-0.5269l-1.17101,0.5269l-0.89301,-1.5807l-0.62099,-0.2974l-0.483,0.2974l0.20999,-0.2244l-0.27699,-0.1512l-0.483,0.1512l-0.067,-0.5999l0,-0.5999l-0.483,-0.1513l0.067,0.2243l-0.34399,-0.8243l-0.272,-0.1513l0.205,-0.4539l-0.34401,-0.1461l-0.75499,0.2244l-0.27701,0.5999l-0.827,0.6l0.13899,0.4538l-0.34399,-0.4538l-1.032,0.3026l-0.895,-0.1513l-0.89301,-0.3756l-0.75999,-0.8243l-0.483,0.0731l0.13901,0.6781l-0.755,0.5217l-0.07201,0.9026l-0.411,0.4538l0.34401,-0.4538l-0.27701,-0.4487l0.416,-1.0538l-0.20599,-0.5269l-0.34401,-0.073l0,-0.3027l0.34401,-0.073l-0.621,-0.8243l-0.827,0.5217l0.20599,-0.4486l-0.55,-0.6782l-1.515,1.0538l0.07201,-0.3026l-0.55,0l-0.41501,-0.5217l-0.13899,-0.4538l1.377,-0.9755l-0.27299,-0.3756l-0.688,0.1513l-0.27701,-0.3756l-0.54999,0l0.205,0.1512l-0.89301,0.6731l-0.827,-0.1513l0.20499,0.2295l-0.68799,0.6729l-0.34401,0l0,-0.3757l-0.478,0l-0.621,0.9756l0.27701,-1.6484l-0.89801,0.5998l-0.27299,-0.3755l-0.416,0.0731l-0.06599,-0.6731l-0.412,0.6l-0.621,-0.0783l0,-0.5998l0.483,-0.0731l-0.205,-0.3757l-1.033,0.6l-1.37599,-0.5269l-0.966,-2.02938l0.067,-0.37563l-1.993,-2.55109l-0.621,0.15125l0.55,0.60002l-0.20601,0.59996l-0.61699,-0.44871l-1.37601,1.72686l-0.75999,-0.07829l-0.41101,-0.52173l-0.13899,-0.82944l-0.965,-0.97553l-0.54901,-0.22439l0.138,-0.45386l-0.27699,0.07829l0.20999,-0.37563l-0.68799,-0.75127l-0.34401,0.07308l-0.34399,1.05382l-0.27701,-0.07829l0.138,-1.12684l-0.621,-1.273l-0.20499,0.75127l-0.68901,0.07308l0.27701,1.35117l-1.242,-1.95113l-0.617,-0.15131l0.82701,1.4294l-0.34401,1.35123l0.27301,-0.30255l0.48199,0.52694l-0.138,0.37558l-0.483,-0.15131l0.21001,0.82949l-0.27701,-0.30255l-0.067,0.37563l-0.34399,-0.52694l0.134,-0.82429l-0.20601,-0.30255l-0.205,0.67819l-0.27699,-0.30255l0.138,-1.57556l-0.34399,0.22433l-0.13901,-0.67819l-0.343,0.30261l-0.617,-1.04867l-0.34399,0.1461l0.34399,0.52694l-0.416,0.07302l0.27701,0.60511l-0.27701,0.07308l0,0.37564l-0.411,0.07302l-0.549,-1.04855l-0.07201,0.75121l-0.20599,-0.37563l-0.272,0.22433l-0.34399,-0.15125l0.549,0.90252l-0.75999,-0.15131l0.07199,0.37563l-0.48199,0.07817l0,0.22438l0.965,-0.07823l0.205,-0.22433l1.10001,0.30255l-0.345,0.59996l0.68799,-0.22433l0.20601,0.37564l-0.616,0.29735l0.34399,0.22953l0.549,-0.15125l-0.205,0.37563l0.55,-0.15131l0.27701,0.22433l-0.34401,0.59996l0.41,0.60511l0.55,0.22439l0.13899,-0.37563l0.27701,0.07302l1.099,-0.82429l0.894,0.07308l0.621,-0.37564l1.23801,0.22433l0.411,0.30255l0.483,-0.5999l0.205,0.15119l-0.134,0.22439l0.411,0l-0.34399,0l0.067,0.22433l-0.41101,-0.07308l-0.205,0.37564l0.272,0.22439l0.621,-0.45386l0.20599,0.30255l-0.27299,-0.22433l-0.48199,0.52688l0.95999,0.07308l-0.133,0.07302l0.205,0.30261l-0.75999,0.15124l0.27699,0.2243l0.621,-0.0731l-1.032,-0.0781l0.894,0.8294l0.827,-0.3756l0.067,-0.3757l-0.13899,0.6731l0.68799,-0.2244l0,0.3026l0.20601,-0.0783l-0.27301,0.0783l0,0.5999l-0.20499,0l0.20499,-0.2244l-0.68799,0l-0.205,0.7513l-0.76001,0.8973l0.621,0.3755l0.20601,0.8295l0.621,0l-0.688,0.2244l-0.278,2.478l0.689,0.4539l0.067,-0.3756l0.21001,0.7512l0.82199,0.2244l-1.993,-0.3757l-0.621,-0.5269l-0.55,0.6l-0.894,0.3026l-0.276,0.7512l0.41501,1.2782l-0.21001,0.4486l-0.894,-1.8051l-0.827,0.3027l-0.205,0.5268l-0.13901,-1.1268l-0.272,-0.1513l-2.13699,1.7268l0.211,0.3026l-1.85899,-0.5269l-0.483,-0.7512l-1.787,0.9025l-3.513,0.1513l-0.894,-0.3026l-0.826,-0.9025l-0.067,-1.3513l-0.416,-0.6781l-0.688,2.2537l0.21001,0.2295l-0.34399,0.1461l-0.688,-0.8973l-0.689,0.3756l0.06699,-0.5269l-0.62099,0.1513l-0.272,-0.3026l-0.55,0.527l0.411,0.6729l-0.13899,1.2782l0.13899,-0.2243l0.34401,0.3025l-0.34401,0.073l0.34401,0.1514l-0.138,0.5999l-0.067,-0.3756l-1.72101,-0.3756l-0.68799,0.6782l0,0.4487l-0.345,-0.0731l0.27299,0.2974l-0.205,0.4539l0.34399,0.146l0.27701,-0.3756l0.48199,0.3026l-0.138,0.3026l0.55,-0.2296l0,0.6783l0.621,0.1512l0.067,0.2974l-0.34399,-0.2974l-0.34401,0.2244l-0.20599,-0.6l-0.20601,0.4487l-0.071,-0.3757l-0.55,-0.073l0.55,0.673l-0.272,-0.073l0.067,0.3756l0.89301,0.2243l0.278,0.8295l-0.13899,0.1461l-0.41101,-0.7513l-0.621,-0.073l0.205,0.9025l-0.205,-0.5269l-0.20599,0.2244l0,-0.527l-0.20599,0.2296l0.20599,-0.3756l-0.34399,-0.6052l-0.27701,0.0782l0.205,0.3757l-0.27299,0l0,-0.6782l-0.27701,0.1513l-0.06599,0.9755l-0.07201,-0.8243l-0.55,0.3757l0.483,-0.5269l0.067,-0.9756l-0.617,0.7513l0.483,-1.2051l-1.85899,-0.7513l-0.483,0.3026l0.62199,0.5269l-0.55499,0.2243l0.278,0.6l-0.20599,-0.0731l-0.27701,0.9026l0.071,0.4486l0.345,-0.2243l0.205,0.4486l-0.27701,0.0783l-0.06699,0.5999l-0.07201,-0.5268l-0.411,-0.0731l0,0.2244l0.483,0.6729l0.48199,-0.2243l0.617,0.3026l0,0.2243l0.34399,-0.3026l-0.272,0.3756l0.688,-0.073l-0.21001,0.073l0.21001,0.1513l-0.34399,-0.1513l-0.211,0.527l-0.06601,-0.3757l-0.756,-0.2973l0.20599,0.5217l-0.20599,0.3756l0.067,-0.6l-0.41,-0.073l-0.278,0.2974l0.13901,-0.2974l-0.34401,0l0,-0.2243l-0.483,0.073l0.067,0.3756l-0.272,-0.1513l0.138,-0.7512l-0.34399,0.1513l0.134,-0.2244l-0.411,-0.3025l-0.27701,-0.0731l-0.345,0.4487l-0.205,0l0.07201,0.2243l0.34399,0.6782l-0.899,-0.8243l0.07201,1.8781l-0.27701,1.2l-1.09999,0.8242l-0.48199,-0.073l-0.13901,-0.4487l-0.205,0l-0.483,0.2974l-0.138,0.4538l0.21001,0.4488l-0.27701,2.3267l0.54901,0.1513l0.894,1.3512l0.89799,0.4539l0.20601,0.6729l-0.621,-0.4486l-0.412,0.073l-0.965,1.5025l-1.99301,1.2781l-0.965,-0.2243l-0.20599,-0.9755l-0.343,0.5268l0.138,0.2975l-0.827,0l0.20599,0.8294l-0.483,1.4242l-0.13899,1.4295l0.13899,0.1513l0.205,-0.4539l0.278,0.3026l-0.20599,-0.2243l-0.13901,0.4486l-0.95999,1.0538l-0.07201,0.4487l0.411,0.3756l0,0.9025l-1.237,0.9026l-0.55,-0.4539l0.205,0.6782l-0.34399,0.7513l0.62199,0.2973l-0.62199,-0.2243l-0.205,-0.5269l0,1.5807l-0.13899,0.2244l0,-0.6l-0.272,0.673l0.134,-0.6l0.138,-0.2243l-0.483,-0.3026l0.345,-0.5217l-0.134,-0.6052l-0.211,0.2296l-0.47701,-0.2296l0.47701,1.0539l-0.272,-0.0731l-0.34401,0.9756l-0.62099,0.5999l0.07199,0.6782l-0.55,0.673l-0.13899,1.2782l0.617,0.073l0.62099,1.0535l0.27701,-0.3023l-0.21001,-0.4486l0.27701,0.6l0.34399,-0.4485l-0.205,0.5267l0.41101,0.6l0.62099,0.1515l0.47801,0l0.48199,-0.7515l-0.41,0.8242l0.616,0.0728l1.515,-0.7509l0.13901,-0.2976l0.067,0.5272l-0.412,-0.0781l-0.41,0.5266l0.067,0.3024l0.343,0l-1.099,0.6l-0.071,0.2243l0.27699,0l-0.48299,0l-0.48201,0.3757l0.621,0l-0.55,0.1515l0.272,0.3758l0.62199,-0.4539l-0.27699,0.3752l0.41499,0.0787l0.067,0.4485l-0.138,-0.4485l-0.61699,0.297l0.75499,0.6054l0.55,-0.3758l0.071,0.2977l0.412,-0.8243l-0.13901,0.2242l0.13901,0.3024l-0.688,0.6l0.205,0.2971l0.827,-0.2971l0.48201,-0.5272l0.827,-0.1509l-0.41499,-0.1515l-0.20601,-0.5213l0.27701,0l-0.21001,0l0.07201,0.2971l0.27199,-0.0728l-0.13399,0.1509l0.411,0.4485l0.34399,-0.3024l0.13901,-0.6l-0.20601,-0.0728l0.27301,0.2243l0.071,-0.3024l-0.48201,1.1267l0.48201,0.3024l-0.41501,0.0733l-0.27299,-0.4491l-0.89799,0.3758l0.89799,0.8243l-0.21001,0.0781l-0.54999,-0.6782l-0.34401,0.1515l0.13901,0.3758l-0.278,1.429l0.13899,-1.5805l-0.688,0.4539l0.07201,-0.2296l-0.345,-0.2243l-0.688,0.2243l-0.34399,-0.0728l0,0.2242l-0.34399,-0.4485l-0.21001,0.2243l0,0.5266l0.69301,0.2977l-0.21001,0.6047l0.34399,0.1462l-0.20599,0.3757l0.13899,-0.3757l-0.34399,-0.1462l0.205,-0.6047l-0.205,-0.1462l-0.55,0.2243l-0.071,0.7515l0.27701,0.1509l-0.27701,-0.0781l0,0.3023l0.205,0.4492l0.416,-0.0734l-0.34399,0.2243l0,0.4485l0.549,0.7515l-1.30901,0.3758l-0.067,0.3757l0.41101,0.3024l-0.41101,-0.0734l-0.20599,-0.4538l0.617,-0.5995l-0.34401,-0.0733l0.34401,-0.1515l-0.894,-1.0533l-0.34401,0.0781l-0.067,0.4485l0.27301,-0.7515l-0.617,-0.9751l-1.104,-0.303l0,0.3757l0.554,0.303l0.412,0.9024l-0.27299,0.2243l0.20599,-0.2243l-0.345,-0.7515l-0.688,-0.4539l-0.34399,-0.8243l-1.032,0l0.067,0.3758l0.48199,0.2976l0.27699,-0.1461l0.134,0.2243l-0.134,-0.2243l-0.41499,0.2243l-0.411,-0.2243l-0.13901,0.3751l0.272,0.3758l-0.47701,-0.6781l0.067,1.2781l0.688,0.2977l-0.411,0.1509l-0.27701,0.3029l0.205,0.4485l0.89799,0.0782l0.20601,0.2976l-0.554,-0.2976l-0.411,0.2242l-0.27301,-0.3024l-0.138,0.8297l0,-0.3758l-0.13899,0.2971l0.20599,0.4538l-0.345,0.6734l0.13901,0.2243l-0.205,-0.2243l0.411,-0.6734l-0.411,-0.5266l-0.34399,1.0485l-0.62201,0.2296l0.13901,0.6l-0.205,-0.6l0.549,-0.3024l-0.067,-0.2242l-0.07199,0.2242l0.13899,-0.4491l0.483,-1.0533l-0.827,-1.2781l-0.278,-0.2249l-0.13301,0.4492l0.13301,-1.2001l-0.47701,-0.6l-0.211,0.1515l0.416,0.297l-0.27701,-0.2242l-0.34399,0.2242l0.205,0.3758l-0.272,0.3024l0.134,-0.9752l-0.20599,-0.303l-3.369,-0.4485l-0.07201,0.6l-0.06599,-0.6l-0.55,-0.5266l-1.033,-0.0788l0.483,0.3758l-1.104,-0.6l-0.34399,0.2242l0.07201,0.1515l-0.34401,-0.1515l-1.58699,0.6054l1.448,0.8977l-0.34401,0.0781l0.34401,0.297l-0.27701,0.2296l0.416,0.5219l0.205,-0.2243l-0.071,0.751l0.27701,0.3029l-1.65401,-2.0296l0.416,1.2781l0.688,0.2977l0.13899,0.3751l-0.13899,-0.297l-0.48201,0l0.205,0.3757l-0.205,-0.1515l0,0.2243l0.067,0.3758l-0.345,-0.0734l-0.616,-0.7509l-0.20599,0.2242l-0.071,-0.3023l0.48199,1.429l-0.205,-0.4485l-0.27699,0.5219l0.205,-0.2977l-0.205,-0.3757l-0.27301,0.3757l0.067,-0.4538l-0.621,-1.0486l0,0.6l-0.20599,-0.2242l-0.34399,0.2242l0.34399,-0.4485l-0.48199,0.2971l-0.412,0.9757l0,0.3758l0.62199,0.8296l-0.345,-0.303l0.067,0.4539l0.412,0.2243l-0.067,0.2242l-0.345,-0.3751l0,0.4485l1.10001,1.732l0.138,1.7267l0.20599,0.3758l0.48201,0l-0.41,0.297l-0.345,-0.2243l-0.41501,-2.1024l-1.855,-2.0291l-0.34399,0.8297l0.411,0.5213l0.067,0.6781l-0.134,0l-0.138,1.2782l-0.483,0.90289l0.13901,0.14561l-0.894,0.1515l0.54999,-0.5267l0.41,-1.0485l-0.343,-1.1273l-0.689,-0.3024l0.689,0.1515l0.343,-0.3029l0,-1.5752l-0.41,-1.1273l0.41,-0.3024l0,-1.6486l0.416,-0.9805l-0.621,0l0,0.229l0,-0.3751l1.37601,-0.303l-0.205,-1.2781l-0.483,-0.2243l0.894,0.2243l-0.067,-0.6l-0.68799,0l-0.96501,-0.9024l-0.20599,0.2242l0,-0.3751l-0.965,-0.7515l-0.412,0.6053l-0.27701,-0.6053l0.21001,-0.4486l-0.826,-0.7515l-0.34399,0.2243l0.272,-0.3752l-0.13301,-0.4491l-0.55499,0.3758l0.07199,-0.751l-0.48299,-0.1514l-0.13901,-0.4488l-0.343,0.2974l0.343,-0.5269l-1.099,-1.1999l-0.34399,-0.8242l-1.44801,-1.0539l-0.411,0.2243l0.138,-0.4487l-0.34399,0.0731l0.13899,-0.2973l-0.27699,0l-0.13901,0.2973l-0.067,-0.2973l-0.20499,0.073l0.06699,-0.9025l-0.48299,-0.4487l0,-0.3026l-0.272,0.3756l-0.62201,-0.8243l-0.40999,0.1514l0.34299,0.3755l-0.20999,0.2244l0.34399,0.4487l0.278,-0.1513l-0.20599,0.1513l-0.62201,-0.2244l0.13901,-0.2243l-0.621,-0.2244l-0.134,-0.5269l-0.416,0.0731l-0.27199,0.9025l-0.27701,-0.3026l0.067,-0.5999l-0.55,1.1269l-0.34399,-0.0731l0.07199,-0.3756l-0.345,-0.3026l0.06801,-0.5269l-0.483,0.3026l0.205,-0.9756l-0.41,0.2243l0,-0.5999l-0.14,0.3756l-0.06599,-0.2243l-0.27701,0.0731l0.205,-0.3027l-0.272,-0.073l-0.07199,-0.3756l-0.067,0.2243l-0.411,-0.6l-0.621,0.0731l0.411,0.3026l-0.20599,0.1513l-0.617,-0.3026l-0.343,0.1513l0.478,0.5269l-0.411,0l-0.13901,0.2974l-0.27299,-0.6l-0.89799,0.3026l0.75999,1.8781l0.411,-0.0783l0.82701,0.7513l0.27699,-0.1461l-0.483,0.2974l-0.688,-0.2244l-0.13899,0.2244l-0.826,-0.2244l0.071,0.2244l-0.41499,0.1513l-0.27299,-0.3026l0,0.6782l0.27299,0.1512l0.34399,-0.3755l0.071,0.5269l-0.34399,0.2243l-0.071,0.7512l-0.27299,0.2244l-0.13901,-0.527l-0.549,-0.2243l0.133,1.2781l-0.205,0.2975l-0.34399,-0.0731l0.13899,0.9025l-0.278,-0.2243l-0.34399,0.2243l0,-1.4294l-0.549,0.2243l-0.272,-0.2973l0.205,-0.7513l-0.483,0.4487l-0.27701,-0.1513l0.483,-0.673l-0.13899,-0.5269l0.966,-0.9756l0.13799,0.1513l-0.48299,-0.3026l-0.48201,0.4487l-0.13899,0.5269l-0.54901,0.0783l0,-0.2296l-0.61699,0.4538l0,0.527l-0.688,0l0.134,0.5999l-0.345,0.0731l-0.205,0.5999l0.827,0.6782l-0.62199,0.1513l-0.067,0.6l0,0l0.00101,-0.0002l0,-0.0001l0,0l0,0z"/>
  </g>
 </g>
</svg>